# MagicaVoxel @ Ephtracy

# group
o 

# material
mtllib lil iron.mtl
usemtl palette

# normals
vn -1 0 0
vn 1 0 0
vn 0 0 1
vn 0 0 -1
vn 0 -1 0
vn 0 1 0

# texcoords
vt 0.0214844 0.5
vt 0.0253906 0.5
vt 0.974609 0.5
vt 0.978516 0.5

# verts
v -0.4 0 0.4
v -0.4 0 0.3
v -0.4 0 0.2
v -0.4 0 0.1
v -0.4 0 0
v -0.4 0 -0.1
v -0.4 0 -0.3
v -0.4 0 -0.4
v -0.4 0 -0.5
v -0.4 0.1 0.3
v -0.4 0.1 0.2
v -0.4 0.1 0.1
v -0.4 0.1 0
v -0.4 0.1 -0.1
v -0.4 0.1 -0.2
v -0.4 0.1 -0.3
v -0.4 0.1 -0.4
v -0.4 0.1 -0.5
v -0.4 0.2 0.3
v -0.4 0.2 0.2
v -0.4 0.2 0.1
v -0.4 0.2 -0.2
v -0.4 0.2 -0.3
v -0.4 0.3 0.3
v -0.4 0.3 0.2
v -0.4 0.3 -0.1
v -0.4 0.3 -0.2
v -0.4 0.3 -0.3
v -0.4 0.3 -0.4
v -0.4 0.4 0.4
v -0.4 0.4 0.3
v -0.4 0.4 0.2
v -0.4 0.4 0.1
v -0.4 0.4 0
v -0.4 0.4 -0.1
v -0.4 0.4 -0.2
v -0.4 0.4 -0.3
v -0.4 0.4 -0.4
v -0.4 0.5 0.4
v -0.4 0.5 0.3
v -0.4 0.5 0.2
v -0.4 0.5 0.1
v -0.4 0.5 0
v -0.4 0.5 -0.4
v -0.4 0.5 -0.5
v -0.4 0.6 0
v -0.4 0.6 -0.1
v -0.4 0.6 -0.3
v -0.4 0.6 -0.4
v -0.4 0.7 0.2
v -0.4 0.7 0.1
v -0.4 0.7 -0.1
v -0.4 0.7 -0.2
v -0.4 0.7 -0.4
v -0.4 0.7 -0.5
v -0.4 0.8 0.4
v -0.4 0.8 0.3
v -0.4 0.8 0.1
v -0.4 0.8 0
v -0.4 0.8 -0.1
v -0.4 0.8 -0.2
v -0.4 0.8 -0.3
v -0.4 0.8 -0.4
v -0.4 0.9 0.4
v -0.4 0.9 0.1
v -0.4 0.9 -0.1
v -0.4 0.9 -0.2
v -0.4 0.9 -0.3
v -0.4 0.9 -0.5
v 0.5 0 0.4
v 0.5 0 0.2
v 0.5 0 0.1
v 0.5 0 -0.2
v 0.5 0 -0.3
v 0.5 0 -0.4
v 0.5 0 -0.5
v 0.5 0.1 0.3
v 0.5 0.1 0.2
v 0.5 0.1 0.1
v 0.5 0.1 -0.2
v 0.5 0.1 -0.3
v 0.5 0.2 0.4
v 0.5 0.2 0.3
v 0.5 0.2 0.2
v 0.5 0.2 0
v 0.5 0.2 -0.1
v 0.5 0.2 -0.3
v 0.5 0.2 -0.4
v 0.5 0.2 -0.5
v 0.5 0.3 0.4
v 0.5 0.3 0.3
v 0.5 0.3 0.1
v 0.5 0.3 -0.1
v 0.5 0.3 -0.3
v 0.5 0.3 -0.4
v 0.5 0.4 0.1
v 0.5 0.4 0
v 0.5 0.4 -0.1
v 0.5 0.4 -0.2
v 0.5 0.4 -0.3
v 0.5 0.4 -0.4
v 0.5 0.5 -0.1
v 0.5 0.5 -0.2
v 0.5 0.5 -0.3
v 0.5 0.5 -0.4
v 0.5 0.6 0.3
v 0.5 0.6 0.2
v 0.5 0.6 0.1
v 0.5 0.6 0
v 0.5 0.6 -0.1
v 0.5 0.6 -0.2
v 0.5 0.6 -0.3
v 0.5 0.6 -0.4
v 0.5 0.7 0.4
v 0.5 0.7 0.3
v 0.5 0.7 0.2
v 0.5 0.7 0.1
v 0.5 0.7 -0.2
v 0.5 0.7 -0.4
v 0.5 0.8 0.4
v 0.5 0.8 0.3
v 0.5 0.8 0.2
v 0.5 0.8 0.1
v 0.5 0.8 0
v 0.5 0.8 -0.1
v 0.5 0.8 -0.2
v 0.5 0.8 -0.3
v 0.5 0.8 -0.4
v 0.5 0.9 0.4
v 0.5 0.9 0.2
v 0.5 0.9 0
v 0.5 0.9 -0.1
v 0.5 0.9 -0.2
v 0.5 0.9 -0.3
v 0.5 0.9 -0.4
v 0.5 0.9 -0.5
v -0.4 0 0.4
v -0.4 0.4 0.4
v -0.4 0.5 0.4
v -0.4 0.8 0.4
v -0.4 0.9 0.4
v -0.3 0.1 0.4
v -0.3 0.4 0.4
v -0.3 0.5 0.4
v -0.3 0.6 0.4
v -0.3 0.8 0.4
v -0.3 0.9 0.4
v -0.2 0.1 0.4
v -0.2 0.3 0.4
v -0.2 0.4 0.4
v -0.2 0.5 0.4
v -0.2 0.6 0.4
v -0.2 0.8 0.4
v -0.1 0.2 0.4
v -0.1 0.3 0.4
v -0.1 0.4 0.4
v -0.1 0.5 0.4
v -0.1 0.6 0.4
v -0.1 0.7 0.4
v 0 0 0.4
v 0 0.2 0.4
v 0 0.3 0.4
v 0 0.6 0.4
v 0 0.7 0.4
v 0 0.8 0.4
v 0 0.9 0.4
v 0.1 0.1 0.4
v 0.1 0.2 0.4
v 0.1 0.4 0.4
v 0.1 0.7 0.4
v 0.1 0.8 0.4
v 0.1 0.9 0.4
v 0.2 0 0.4
v 0.2 0.1 0.4
v 0.2 0.2 0.4
v 0.2 0.3 0.4
v 0.2 0.4 0.4
v 0.2 0.5 0.4
v 0.2 0.6 0.4
v 0.2 0.7 0.4
v 0.2 0.8 0.4
v 0.3 0.2 0.4
v 0.3 0.3 0.4
v 0.3 0.4 0.4
v 0.3 0.5 0.4
v 0.3 0.7 0.4
v 0.3 0.8 0.4
v 0.3 0.9 0.4
v 0.4 0.1 0.4
v 0.4 0.2 0.4
v 0.4 0.3 0.4
v 0.4 0.4 0.4
v 0.4 0.6 0.4
v 0.4 0.7 0.4
v 0.4 0.8 0.4
v 0.4 0.9 0.4
v 0.5 0 0.4
v 0.5 0.2 0.4
v 0.5 0.3 0.4
v 0.5 0.7 0.4
v 0.5 0.8 0.4
v 0.5 0.9 0.4
v -0.4 0 -0.5
v -0.4 0.1 -0.5
v -0.4 0.5 -0.5
v -0.4 0.7 -0.5
v -0.4 0.9 -0.5
v -0.3 0 -0.5
v -0.3 0.1 -0.5
v -0.3 0.2 -0.5
v -0.3 0.3 -0.5
v -0.3 0.4 -0.5
v -0.3 0.5 -0.5
v -0.3 0.7 -0.5
v -0.3 0.9 -0.5
v -0.2 0.1 -0.5
v -0.2 0.2 -0.5
v -0.2 0.3 -0.5
v -0.2 0.4 -0.5
v -0.2 0.5 -0.5
v -0.2 0.6 -0.5
v -0.2 0.7 -0.5
v -0.2 0.9 -0.5
v -0.1 0 -0.5
v -0.1 0.1 -0.5
v -0.1 0.3 -0.5
v -0.1 0.4 -0.5
v -0.1 0.5 -0.5
v -0.1 0.6 -0.5
v -0.1 0.8 -0.5
v 0 0 -0.5
v 0 0.1 -0.5
v 0 0.3 -0.5
v 0 0.4 -0.5
v 0 0.6 -0.5
v 0 0.8 -0.5
v 0 0.9 -0.5
v 0.1 0.1 -0.5
v 0.1 0.2 -0.5
v 0.1 0.3 -0.5
v 0.1 0.6 -0.5
v 0.1 0.7 -0.5
v 0.1 0.8 -0.5
v 0.1 0.9 -0.5
v 0.2 0.1 -0.5
v 0.2 0.2 -0.5
v 0.2 0.4 -0.5
v 0.2 0.5 -0.5
v 0.2 0.6 -0.5
v 0.2 0.7 -0.5
v 0.2 0.8 -0.5
v 0.3 0.2 -0.5
v 0.3 0.4 -0.5
v 0.3 0.5 -0.5
v 0.3 0.6 -0.5
v 0.3 0.7 -0.5
v 0.3 0.8 -0.5
v 0.3 0.9 -0.5
v 0.4 0 -0.5
v 0.4 0.2 -0.5
v 0.4 0.4 -0.5
v 0.4 0.5 -0.5
v 0.4 0.6 -0.5
v 0.4 0.8 -0.5
v 0.4 0.9 -0.5
v 0.5 0 -0.5
v 0.5 0.2 -0.5
v 0.5 0.9 -0.5
v -0.4 0 0.4
v 0 0 0.4
v 0.2 0 0.4
v 0.5 0 0.4
v -0.4 0 0.3
v -0.2 0 0.3
v 0 0 0.3
v 0.2 0 0.3
v 0.3 0 0.3
v 0.4 0 0.3
v -0.4 0 0.2
v -0.3 0 0.2
v -0.2 0 0.2
v -0.1 0 0.2
v 0 0 0.2
v 0.2 0 0.2
v 0.3 0 0.2
v 0.4 0 0.2
v 0.5 0 0.2
v -0.4 0 0.1
v -0.3 0 0.1
v -0.1 0 0.1
v 0.1 0 0.1
v 0.2 0 0.1
v 0.4 0 0.1
v 0.5 0 0.1
v -0.4 0 0
v -0.3 0 0
v -0.2 0 0
v -0.1 0 0
v 0 0 0
v 0.1 0 0
v 0.2 0 0
v 0.4 0 0
v -0.4 0 -0.1
v -0.3 0 -0.1
v -0.2 0 -0.1
v -0.1 0 -0.1
v 0 0 -0.1
v 0.1 0 -0.1
v 0.2 0 -0.1
v -0.3 0 -0.2
v -0.2 0 -0.2
v 0 0 -0.2
v 0.2 0 -0.2
v 0.3 0 -0.2
v 0.4 0 -0.2
v 0.5 0 -0.2
v -0.4 0 -0.3
v -0.3 0 -0.3
v -0.2 0 -0.3
v -0.1 0 -0.3
v 0.2 0 -0.3
v 0.3 0 -0.3
v 0.4 0 -0.3
v 0.5 0 -0.3
v -0.4 0 -0.4
v -0.3 0 -0.4
v -0.2 0 -0.4
v -0.1 0 -0.4
v 0 0 -0.4
v 0.2 0 -0.4
v 0.3 0 -0.4
v 0.4 0 -0.4
v 0.5 0 -0.4
v -0.4 0 -0.5
v -0.3 0 -0.5
v -0.1 0 -0.5
v 0 0 -0.5
v 0.4 0 -0.5
v 0.5 0 -0.5
v -0.4 0.9 0.4
v -0.3 0.9 0.4
v 0 0.9 0.4
v 0.1 0.9 0.4
v 0.3 0.9 0.4
v 0.4 0.9 0.4
v 0.5 0.9 0.4
v -0.3 0.9 0.3
v -0.1 0.9 0.3
v 0 0.9 0.3
v 0.1 0.9 0.3
v 0.2 0.9 0.3
v 0.3 0.9 0.3
v 0.4 0.9 0.3
v -0.3 0.9 0.2
v -0.2 0.9 0.2
v 0.1 0.9 0.2
v 0.2 0.9 0.2
v 0.3 0.9 0.2
v 0.4 0.9 0.2
v 0.5 0.9 0.2
v -0.4 0.9 0.1
v -0.3 0.9 0.1
v -0.2 0.9 0.1
v -0.1 0.9 0.1
v 0 0.9 0.1
v 0.2 0.9 0.1
v -0.2 0.9 0
v -0.1 0.9 0
v 0 0.9 0
v 0.1 0.9 0
v 0.2 0.9 0
v 0.3 0.9 0
v 0.4 0.9 0
v 0.5 0.9 0
v -0.4 0.9 -0.1
v -0.3 0.9 -0.1
v -0.2 0.9 -0.1
v -0.1 0.9 -0.1
v 0 0.9 -0.1
v 0.1 0.9 -0.1
v 0.2 0.9 -0.1
v 0.4 0.9 -0.1
v 0.5 0.9 -0.1
v -0.4 0.9 -0.2
v -0.3 0.9 -0.2
v -0.2 0.9 -0.2
v -0.1 0.9 -0.2
v 0.1 0.9 -0.2
v 0.3 0.9 -0.2
v 0.4 0.9 -0.2
v 0.5 0.9 -0.2
v -0.4 0.9 -0.3
v -0.3 0.9 -0.3
v -0.2 0.9 -0.3
v -0.1 0.9 -0.3
v 0 0.9 -0.3
v 0.1 0.9 -0.3
v 0.2 0.9 -0.3
v 0.4 0.9 -0.3
v 0.5 0.9 -0.3
v -0.3 0.9 -0.4
v -0.2 0.9 -0.4
v -0.1 0.9 -0.4
v 0.2 0.9 -0.4
v 0.3 0.9 -0.4
v 0.4 0.9 -0.4
v 0.5 0.9 -0.4
v -0.4 0.9 -0.5
v -0.3 0.9 -0.5
v -0.2 0.9 -0.5
v 0 0.9 -0.5
v 0.1 0.9 -0.5
v 0.3 0.9 -0.5
v 0.4 0.9 -0.5
v 0.5 0.9 -0.5

# faces
f 10/3/1 2/3/1 1/3/1
f 10/2/1 3/2/1 2/2/1
f 11/1/1 4/1/1 3/1/1
f 11/2/1 3/2/1 10/2/1
f 12/3/1 5/3/1 4/3/1
f 12/1/1 4/1/1 11/1/1
f 13/4/1 6/4/1 5/4/1
f 13/3/1 5/3/1 12/3/1
f 14/3/1 7/3/1 6/3/1
f 14/4/1 6/4/1 13/4/1
f 15/3/1 7/3/1 14/3/1
f 16/1/1 8/1/1 7/1/1
f 16/3/1 7/3/1 15/3/1
f 17/2/1 9/2/1 8/2/1
f 17/1/1 8/1/1 16/1/1
f 18/2/1 9/2/1 17/2/1
f 19/3/1 10/3/1 1/3/1
f 19/3/1 11/3/1 10/3/1
f 20/2/1 12/2/1 11/2/1
f 20/3/1 11/3/1 19/3/1
f 21/3/1 13/3/1 12/3/1
f 21/2/1 12/2/1 20/2/1
f 21/3/1 14/3/1 13/3/1
f 22/3/1 16/3/1 15/3/1
f 22/4/1 15/4/1 14/4/1
f 22/3/1 18/3/1 17/3/1
f 22/3/1 17/3/1 16/3/1
f 23/3/1 18/3/1 22/3/1
f 24/2/1 20/2/1 19/2/1
f 24/3/1 19/3/1 1/3/1
f 25/3/1 21/3/1 20/3/1
f 25/2/1 20/2/1 24/2/1
f 26/3/1 14/3/1 21/3/1
f 26/3/1 21/3/1 25/3/1
f 26/4/1 22/4/1 14/4/1
f 27/2/1 23/2/1 22/2/1
f 27/4/1 22/4/1 26/4/1
f 28/3/1 18/3/1 23/3/1
f 28/2/1 23/2/1 27/2/1
f 29/3/1 18/3/1 28/3/1
f 30/3/1 25/3/1 24/3/1
f 30/3/1 24/3/1 1/3/1
f 30/3/1 27/3/1 26/3/1
f 30/3/1 26/3/1 25/3/1
f 31/3/1 27/3/1 30/3/1
f 32/3/1 27/3/1 31/3/1
f 33/3/1 27/3/1 32/3/1
f 34/3/1 27/3/1 33/3/1
f 35/3/1 27/3/1 34/3/1
f 36/2/1 28/2/1 27/2/1
f 36/3/1 27/3/1 35/3/1
f 37/1/1 29/1/1 28/1/1
f 37/2/1 28/2/1 36/2/1
f 38/3/1 18/3/1 29/3/1
f 38/1/1 29/1/1 37/1/1
f 39/4/1 31/4/1 30/4/1
f 40/3/1 32/3/1 31/3/1
f 40/4/1 31/4/1 39/4/1
f 41/2/1 33/2/1 32/2/1
f 41/3/1 32/3/1 40/3/1
f 42/1/1 34/1/1 33/1/1
f 42/2/1 33/2/1 41/2/1
f 43/2/1 35/2/1 34/2/1
f 43/1/1 34/1/1 42/1/1
f 44/3/1 18/3/1 38/3/1
f 44/2/1 38/2/1 37/2/1
f 45/3/1 18/3/1 44/3/1
f 46/2/1 35/2/1 43/2/1
f 46/2/1 43/2/1 42/2/1
f 47/3/1 37/3/1 36/3/1
f 47/2/1 35/2/1 46/2/1
f 47/3/1 36/3/1 35/3/1
f 48/2/1 44/2/1 37/2/1
f 48/3/1 37/3/1 47/3/1
f 49/4/1 45/4/1 44/4/1
f 49/2/1 44/2/1 48/2/1
f 50/1/1 42/1/1 41/1/1
f 50/2/1 41/2/1 40/2/1
f 51/2/1 46/2/1 42/2/1
f 51/1/1 42/1/1 50/1/1
f 52/3/1 47/3/1 46/3/1
f 52/3/1 49/3/1 48/3/1
f 52/3/1 48/3/1 47/3/1
f 53/3/1 49/3/1 52/3/1
f 54/4/1 45/4/1 49/4/1
f 54/3/1 49/3/1 53/3/1
f 55/4/1 45/4/1 54/4/1
f 56/3/1 40/3/1 39/3/1
f 57/2/1 50/2/1 40/2/1
f 57/3/1 40/3/1 56/3/1
f 57/2/1 51/2/1 50/2/1
f 58/2/1 46/2/1 51/2/1
f 58/2/1 51/2/1 57/2/1
f 59/3/1 52/3/1 46/3/1
f 59/2/1 46/2/1 58/2/1
f 60/1/1 53/1/1 52/1/1
f 60/3/1 52/3/1 59/3/1
f 61/2/1 54/2/1 53/2/1
f 61/1/1 53/1/1 60/1/1
f 62/2/1 54/2/1 61/2/1
f 63/3/1 55/3/1 54/3/1
f 63/2/1 54/2/1 62/2/1
f 64/4/1 57/4/1 56/4/1
f 64/4/1 58/4/1 57/4/1
f 65/3/1 59/3/1 58/3/1
f 65/4/1 58/4/1 64/4/1
f 65/3/1 60/3/1 59/3/1
f 66/2/1 61/2/1 60/2/1
f 66/3/1 60/3/1 65/3/1
f 67/1/1 62/1/1 61/1/1
f 67/2/1 61/2/1 66/2/1
f 68/3/1 63/3/1 62/3/1
f 68/1/1 62/1/1 67/1/1
f 69/3/1 55/3/1 63/3/1
f 69/3/1 63/3/1 68/3/1
f 70/3/2 71/3/2 77/3/2
f 71/4/2 72/4/2 78/4/2
f 77/3/2 71/3/2 78/3/2
f 72/3/2 73/3/2 79/3/2
f 78/4/2 72/4/2 79/4/2
f 73/4/2 74/4/2 80/4/2
f 79/3/2 73/3/2 80/3/2
f 74/3/2 75/3/2 81/3/2
f 80/4/2 74/4/2 81/4/2
f 70/3/2 77/3/2 82/3/2
f 77/1/2 78/1/2 83/1/2
f 82/3/2 77/3/2 83/3/2
f 78/2/2 79/2/2 84/2/2
f 83/1/2 78/1/2 84/1/2
f 79/3/2 80/3/2 85/3/2
f 80/3/2 81/3/2 85/3/2
f 85/3/2 81/3/2 86/3/2
f 81/3/2 75/3/2 87/3/2
f 86/3/2 81/3/2 87/3/2
f 75/4/2 76/4/2 88/4/2
f 87/3/2 75/3/2 88/3/2
f 88/4/2 76/4/2 89/4/2
f 82/4/2 83/4/2 90/4/2
f 83/2/2 84/2/2 91/2/2
f 90/4/2 83/4/2 91/4/2
f 84/2/2 79/2/2 92/2/2
f 91/2/2 84/2/2 92/2/2
f 79/3/2 85/3/2 92/3/2
f 86/3/2 87/3/2 93/3/2
f 85/4/2 86/4/2 93/4/2
f 87/4/2 88/4/2 94/4/2
f 93/3/2 87/3/2 94/3/2
f 88/3/2 89/3/2 95/3/2
f 94/4/2 88/4/2 95/4/2
f 92/3/2 85/3/2 96/3/2
f 91/3/2 92/3/2 96/3/2
f 90/3/2 91/3/2 96/3/2
f 85/4/2 93/4/2 97/4/2
f 96/3/2 85/3/2 97/3/2
f 93/2/2 94/2/2 98/2/2
f 97/4/2 93/4/2 98/4/2
f 98/2/2 94/2/2 99/2/2
f 94/3/2 95/3/2 100/3/2
f 99/2/2 94/2/2 100/2/2
f 95/3/2 89/3/2 101/3/2
f 100/3/2 95/3/2 101/3/2
f 98/2/2 99/2/2 102/2/2
f 97/3/2 98/3/2 102/3/2
f 99/1/2 100/1/2 103/1/2
f 102/2/2 99/2/2 103/2/2
f 100/2/2 101/2/2 104/2/2
f 103/1/2 100/1/2 104/1/2
f 101/3/2 89/3/2 105/3/2
f 104/2/2 101/2/2 105/2/2
f 90/3/2 96/3/2 106/3/2
f 106/3/2 96/3/2 107/3/2
f 96/4/2 97/4/2 108/4/2
f 107/3/2 96/3/2 108/3/2
f 97/3/2 102/3/2 109/3/2
f 108/4/2 97/4/2 109/4/2
f 102/3/2 103/3/2 109/3/2
f 109/3/2 103/3/2 110/3/2
f 103/2/2 104/2/2 111/2/2
f 110/3/2 103/3/2 111/3/2
f 104/1/2 105/1/2 112/1/2
f 111/2/2 104/2/2 112/2/2
f 105/3/2 89/3/2 113/3/2
f 112/1/2 105/1/2 113/1/2
f 90/3/2 106/3/2 114/3/2
f 106/2/2 107/2/2 115/2/2
f 114/3/2 106/3/2 115/3/2
f 107/1/2 108/1/2 116/1/2
f 115/2/2 107/2/2 116/2/2
f 109/3/2 110/3/2 117/3/2
f 116/1/2 108/1/2 117/1/2
f 108/3/2 109/3/2 117/3/2
f 111/2/2 112/2/2 118/2/2
f 110/4/2 111/4/2 118/4/2
f 112/2/2 113/2/2 118/2/2
f 113/3/2 89/3/2 119/3/2
f 118/2/2 113/2/2 119/2/2
f 114/2/2 115/2/2 120/2/2
f 115/1/2 116/1/2 121/1/2
f 120/2/2 115/2/2 121/2/2
f 116/2/2 117/2/2 122/2/2
f 121/1/2 116/1/2 122/1/2
f 117/3/2 110/3/2 123/3/2
f 122/2/2 117/2/2 123/2/2
f 123/3/2 110/3/2 124/3/2
f 110/4/2 118/4/2 125/4/2
f 124/3/2 110/3/2 125/3/2
f 118/3/2 119/3/2 126/3/2
f 125/4/2 118/4/2 126/4/2
f 126/3/2 119/3/2 127/3/2
f 119/3/2 89/3/2 128/3/2
f 127/3/2 119/3/2 128/3/2
f 121/4/2 122/4/2 129/4/2
f 120/4/2 121/4/2 129/4/2
f 123/3/2 124/3/2 130/3/2
f 129/4/2 122/4/2 130/4/2
f 122/3/2 123/3/2 130/3/2
f 124/4/2 125/4/2 131/4/2
f 130/3/2 124/3/2 131/3/2
f 125/1/2 126/1/2 132/1/2
f 131/4/2 125/4/2 132/4/2
f 126/2/2 127/2/2 133/2/2
f 132/1/2 126/1/2 133/1/2
f 127/4/2 128/4/2 134/4/2
f 133/2/2 127/2/2 134/2/2
f 128/3/2 89/3/2 135/3/2
f 134/4/2 128/4/2 135/4/2
f 135/3/2 89/3/2 136/3/2
f 142/3/3 138/3/3 137/3/3
f 143/4/3 139/4/3 138/4/3
f 143/3/3 138/3/3 142/3/3
f 144/3/3 140/3/3 139/3/3
f 144/4/3 139/4/3 143/4/3
f 145/3/3 140/3/3 144/3/3
f 146/4/3 141/4/3 140/4/3
f 146/3/3 140/3/3 145/3/3
f 147/4/3 141/4/3 146/4/3
f 148/3/3 142/3/3 137/3/3
f 148/4/3 143/4/3 142/4/3
f 149/4/3 143/4/3 148/4/3
f 150/2/3 145/2/3 144/2/3
f 150/4/3 143/4/3 149/4/3
f 150/2/3 144/2/3 143/2/3
f 151/2/3 145/2/3 150/2/3
f 152/4/3 146/4/3 145/4/3
f 152/2/3 145/2/3 151/2/3
f 153/3/3 147/3/3 146/3/3
f 153/4/3 146/4/3 152/4/3
f 154/3/3 149/3/3 148/3/3
f 155/2/3 150/2/3 149/2/3
f 155/3/3 149/3/3 154/3/3
f 156/1/3 151/1/3 150/1/3
f 156/2/3 150/2/3 155/2/3
f 157/2/3 152/2/3 151/2/3
f 157/1/3 151/1/3 156/1/3
f 158/3/3 153/3/3 152/3/3
f 158/2/3 152/2/3 157/2/3
f 159/3/3 153/3/3 158/3/3
f 160/3/3 148/3/3 137/3/3
f 160/3/3 154/3/3 148/3/3
f 161/4/3 155/4/3 154/4/3
f 161/3/3 154/3/3 160/3/3
f 162/3/3 156/3/3 155/3/3
f 162/4/3 155/4/3 161/4/3
f 162/3/3 157/3/3 156/3/3
f 162/3/3 158/3/3 157/3/3
f 163/1/3 159/1/3 158/1/3
f 163/3/3 158/3/3 162/3/3
f 164/3/3 153/3/3 159/3/3
f 164/1/3 159/1/3 163/1/3
f 165/3/3 147/3/3 153/3/3
f 165/3/3 153/3/3 164/3/3
f 166/3/3 147/3/3 165/3/3
f 167/4/3 161/4/3 160/4/3
f 168/3/3 164/3/3 163/3/3
f 168/4/3 161/4/3 167/4/3
f 168/3/3 163/3/3 162/3/3
f 168/3/3 162/3/3 161/3/3
f 168/3/3 165/3/3 164/3/3
f 169/3/3 165/3/3 168/3/3
f 170/3/3 165/3/3 169/3/3
f 171/4/3 166/4/3 165/4/3
f 171/3/3 165/3/3 170/3/3
f 172/4/3 166/4/3 171/4/3
f 173/4/3 167/4/3 160/4/3
f 174/3/3 168/3/3 167/3/3
f 174/4/3 167/4/3 173/4/3
f 175/2/3 169/2/3 168/2/3
f 175/3/3 168/3/3 174/3/3
f 176/2/3 169/2/3 175/2/3
f 177/3/3 170/3/3 169/3/3
f 177/2/3 169/2/3 176/2/3
f 178/3/3 170/3/3 177/3/3
f 179/3/3 170/3/3 178/3/3
f 180/4/3 171/4/3 170/4/3
f 180/3/3 170/3/3 179/3/3
f 181/3/3 172/3/3 171/3/3
f 181/4/3 171/4/3 180/4/3
f 182/1/3 176/1/3 175/1/3
f 182/2/3 175/2/3 174/2/3
f 183/2/3 177/2/3 176/2/3
f 183/1/3 176/1/3 182/1/3
f 183/2/3 178/2/3 177/2/3
f 184/2/3 178/2/3 183/2/3
f 185/3/3 179/3/3 178/3/3
f 185/2/3 178/2/3 184/2/3
f 186/2/3 180/2/3 179/2/3
f 186/2/3 181/2/3 180/2/3
f 187/3/3 172/3/3 181/3/3
f 187/2/3 181/2/3 186/2/3
f 188/3/3 172/3/3 187/3/3
f 189/3/3 174/3/3 173/3/3
f 189/2/3 182/2/3 174/2/3
f 190/3/3 183/3/3 182/3/3
f 190/2/3 182/2/3 189/2/3
f 191/4/3 184/4/3 183/4/3
f 191/3/3 183/3/3 190/3/3
f 192/3/3 185/3/3 184/3/3
f 192/4/3 184/4/3 191/4/3
f 193/2/3 186/2/3 179/2/3
f 193/3/3 185/3/3 192/3/3
f 193/3/3 179/3/3 185/3/3
f 194/1/3 187/1/3 186/1/3
f 194/2/3 186/2/3 193/2/3
f 195/2/3 188/2/3 187/2/3
f 195/1/3 187/1/3 194/1/3
f 196/2/3 188/2/3 195/2/3
f 197/3/3 190/3/3 189/3/3
f 197/3/3 189/3/3 173/3/3
f 198/4/3 191/4/3 190/4/3
f 198/3/3 190/3/3 197/3/3
f 199/3/3 192/3/3 191/3/3
f 199/4/3 191/4/3 198/4/3
f 199/3/3 193/3/3 192/3/3
f 199/3/3 194/3/3 193/3/3
f 200/2/3 195/2/3 194/2/3
f 200/3/3 194/3/3 199/3/3
f 201/4/3 196/4/3 195/4/3
f 201/2/3 195/2/3 200/2/3
f 202/4/3 196/4/3 201/4/3
f 203/2/4 204/2/4 208/2/4
f 204/3/4 205/3/4 209/3/4
f 208/2/4 204/2/4 209/2/4
f 209/3/4 205/3/4 210/3/4
f 210/3/4 205/3/4 211/3/4
f 211/3/4 205/3/4 212/3/4
f 205/4/4 206/4/4 213/4/4
f 212/3/4 205/3/4 213/3/4
f 206/3/4 207/3/4 214/3/4
f 213/4/4 206/4/4 214/4/4
f 214/3/4 207/3/4 215/3/4
f 208/3/4 209/3/4 216/3/4
f 209/4/4 210/4/4 216/4/4
f 210/3/4 211/3/4 217/3/4
f 216/4/4 210/4/4 217/4/4
f 211/1/4 212/1/4 218/1/4
f 217/3/4 211/3/4 218/3/4
f 212/2/4 213/2/4 219/2/4
f 218/1/4 212/1/4 219/1/4
f 213/3/4 214/3/4 220/3/4
f 219/2/4 213/2/4 220/2/4
f 220/3/4 214/3/4 221/3/4
f 214/4/4 215/4/4 222/4/4
f 221/3/4 214/3/4 222/3/4
f 222/4/4 215/4/4 223/4/4
f 216/3/4 217/3/4 224/3/4
f 208/3/4 216/3/4 224/3/4
f 224/3/4 217/3/4 225/3/4
f 217/2/4 218/2/4 226/2/4
f 218/2/4 219/2/4 226/2/4
f 219/3/4 220/3/4 227/3/4
f 226/2/4 219/2/4 227/2/4
f 220/4/4 221/4/4 228/4/4
f 227/3/4 220/3/4 228/3/4
f 222/3/4 223/3/4 229/3/4
f 228/4/4 221/4/4 229/4/4
f 221/3/4 222/3/4 229/3/4
f 229/3/4 223/3/4 230/3/4
f 224/4/4 225/4/4 231/4/4
f 225/3/4 217/3/4 232/3/4
f 231/4/4 225/4/4 232/4/4
f 226/1/4 227/1/4 233/1/4
f 217/2/4 226/2/4 233/2/4
f 227/3/4 228/3/4 234/3/4
f 233/1/4 227/1/4 234/1/4
f 228/3/4 229/3/4 234/3/4
f 229/4/4 230/4/4 235/4/4
f 234/3/4 229/3/4 235/3/4
f 230/3/4 223/3/4 236/3/4
f 235/4/4 230/4/4 236/4/4
f 236/3/4 223/3/4 237/3/4
f 232/3/4 217/3/4 238/3/4
f 231/3/4 232/3/4 238/3/4
f 217/2/4 233/2/4 239/2/4
f 238/3/4 217/3/4 239/3/4
f 234/3/4 235/3/4 240/3/4
f 239/2/4 233/2/4 240/2/4
f 233/3/4 234/3/4 240/3/4
f 235/3/4 236/3/4 240/3/4
f 240/3/4 236/3/4 241/3/4
f 241/3/4 236/3/4 242/3/4
f 236/4/4 237/4/4 243/4/4
f 242/3/4 236/3/4 243/3/4
f 243/4/4 237/4/4 244/4/4
f 231/3/4 238/3/4 245/3/4
f 238/4/4 239/4/4 245/4/4
f 239/3/4 240/3/4 246/3/4
f 245/4/4 239/4/4 246/4/4
f 240/3/4 241/3/4 246/3/4
f 246/3/4 241/3/4 247/3/4
f 247/3/4 241/3/4 248/3/4
f 241/2/4 242/2/4 249/2/4
f 248/3/4 241/3/4 249/3/4
f 243/3/4 244/3/4 250/3/4
f 249/2/4 242/2/4 250/2/4
f 242/3/4 243/3/4 250/3/4
f 250/3/4 244/3/4 251/3/4
f 246/4/4 247/4/4 252/4/4
f 245/3/4 246/3/4 252/3/4
f 247/3/4 248/3/4 253/3/4
f 252/4/4 247/4/4 253/4/4
f 248/2/4 249/2/4 254/2/4
f 253/3/4 248/3/4 254/3/4
f 249/1/4 250/1/4 255/1/4
f 254/2/4 249/2/4 255/2/4
f 250/2/4 251/2/4 256/2/4
f 255/1/4 250/1/4 256/1/4
f 251/3/4 244/3/4 257/3/4
f 256/2/4 251/2/4 257/2/4
f 257/3/4 244/3/4 258/3/4
f 252/3/4 253/3/4 259/3/4
f 245/3/4 252/3/4 259/3/4
f 231/3/4 245/3/4 259/3/4
f 259/3/4 253/3/4 260/3/4
f 253/4/4 254/4/4 261/4/4
f 260/3/4 253/3/4 261/3/4
f 254/3/4 255/3/4 262/3/4
f 261/4/4 254/4/4 262/4/4
f 256/2/4 257/2/4 263/2/4
f 262/3/4 255/3/4 263/3/4
f 255/2/4 256/2/4 263/2/4
f 257/4/4 258/4/4 264/4/4
f 263/2/4 257/2/4 264/2/4
f 264/4/4 258/4/4 265/4/4
f 259/4/4 260/4/4 266/4/4
f 262/3/4 263/3/4 267/3/4
f 266/4/4 260/4/4 267/4/4
f 261/3/4 262/3/4 267/3/4
f 264/3/4 265/3/4 267/3/4
f 263/3/4 264/3/4 267/3/4
f 260/3/4 261/3/4 267/3/4
f 267/3/4 265/3/4 268/3/4
f 273/3/5 270/3/5 269/3/5
f 274/3/5 270/3/5 273/3/5
f 275/4/5 271/4/5 270/4/5
f 275/3/5 270/3/5 274/3/5
f 276/3/5 272/3/5 271/3/5
f 276/4/5 271/4/5 275/4/5
f 277/3/5 272/3/5 276/3/5
f 278/3/5 272/3/5 277/3/5
f 279/2/5 274/2/5 273/2/5
f 280/2/5 274/2/5 279/2/5
f 281/4/5 275/4/5 274/4/5
f 281/2/5 274/2/5 280/2/5
f 282/4/5 275/4/5 281/4/5
f 283/3/5 276/3/5 275/3/5
f 283/4/5 275/4/5 282/4/5
f 283/3/5 277/3/5 276/3/5
f 284/3/5 277/3/5 283/3/5
f 285/4/5 278/4/5 277/4/5
f 285/3/5 277/3/5 284/3/5
f 286/3/5 272/3/5 278/3/5
f 286/4/5 278/4/5 285/4/5
f 287/3/5 272/3/5 286/3/5
f 288/1/5 280/1/5 279/1/5
f 289/2/5 282/2/5 281/2/5
f 289/1/5 280/1/5 288/1/5
f 289/2/5 281/2/5 280/2/5
f 290/3/5 283/3/5 282/3/5
f 290/2/5 282/2/5 289/2/5
f 291/2/5 284/2/5 283/2/5
f 292/3/5 285/3/5 284/3/5
f 292/2/5 284/2/5 291/2/5
f 292/3/5 286/3/5 285/3/5
f 293/4/5 287/4/5 286/4/5
f 293/3/5 286/3/5 292/3/5
f 294/4/5 287/4/5 293/4/5
f 295/3/5 289/3/5 288/3/5
f 295/3/5 290/3/5 289/3/5
f 296/3/5 290/3/5 295/3/5
f 297/3/5 290/3/5 296/3/5
f 298/3/5 283/3/5 290/3/5
f 298/3/5 290/3/5 297/3/5
f 299/2/5 291/2/5 283/2/5
f 299/3/5 283/3/5 298/3/5
f 300/1/5 292/1/5 291/1/5
f 300/2/5 291/2/5 299/2/5
f 301/4/5 293/4/5 292/4/5
f 301/1/5 292/1/5 300/1/5
f 302/3/5 294/3/5 293/3/5
f 302/4/5 293/4/5 301/4/5
f 303/4/5 296/4/5 295/4/5
f 304/3/5 297/3/5 296/3/5
f 304/4/5 296/4/5 303/4/5
f 305/1/5 298/1/5 297/1/5
f 305/3/5 297/3/5 304/3/5
f 306/3/5 299/3/5 298/3/5
f 306/1/5 298/1/5 305/1/5
f 306/3/5 300/3/5 299/3/5
f 307/3/5 300/3/5 306/3/5
f 308/4/5 301/4/5 300/4/5
f 308/3/5 300/3/5 307/3/5
f 309/3/5 302/3/5 301/3/5
f 309/4/5 301/4/5 308/4/5
f 310/3/5 304/3/5 303/3/5
f 310/1/5 305/1/5 304/1/5
f 311/2/5 306/2/5 305/2/5
f 311/1/5 305/1/5 310/1/5
f 312/1/5 309/1/5 308/1/5
f 312/3/5 307/3/5 306/3/5
f 312/1/5 308/1/5 307/1/5
f 313/3/5 302/3/5 309/3/5
f 313/1/5 309/1/5 312/1/5
f 314/3/5 302/3/5 313/3/5
f 315/3/5 294/3/5 302/3/5
f 315/3/5 302/3/5 314/3/5
f 316/3/5 294/3/5 315/3/5
f 317/3/5 310/3/5 303/3/5
f 318/2/5 311/2/5 310/2/5
f 318/3/5 310/3/5 317/3/5
f 319/2/5 306/2/5 311/2/5
f 319/2/5 311/2/5 318/2/5
f 320/3/5 312/3/5 306/3/5
f 320/2/5 306/2/5 319/2/5
f 321/2/5 314/2/5 313/2/5
f 321/2/5 313/2/5 312/2/5
f 322/3/5 315/3/5 314/3/5
f 322/2/5 314/2/5 321/2/5
f 323/4/5 316/4/5 315/4/5
f 323/3/5 315/3/5 322/3/5
f 324/4/5 316/4/5 323/4/5
f 325/1/5 318/1/5 317/1/5
f 326/2/5 319/2/5 318/2/5
f 326/1/5 318/1/5 325/1/5
f 327/3/5 320/3/5 319/3/5
f 327/2/5 319/2/5 326/2/5
f 328/3/5 312/3/5 320/3/5
f 328/3/5 320/3/5 327/3/5
f 329/2/5 321/2/5 312/2/5
f 329/3/5 312/3/5 328/3/5
f 330/1/5 322/1/5 321/1/5
f 330/2/5 321/2/5 329/2/5
f 331/4/5 323/4/5 322/4/5
f 331/1/5 322/1/5 330/1/5
f 332/3/5 324/3/5 323/3/5
f 332/4/5 323/4/5 331/4/5
f 333/3/5 324/3/5 332/3/5
f 334/2/5 326/2/5 325/2/5
f 335/3/5 327/3/5 326/3/5
f 335/2/5 326/2/5 334/2/5
f 335/3/5 328/3/5 327/3/5
f 336/4/5 329/4/5 328/4/5
f 336/3/5 328/3/5 335/3/5
f 337/3/5 330/3/5 329/3/5
f 337/4/5 329/4/5 336/4/5
f 337/3/5 331/3/5 330/3/5
f 337/3/5 332/3/5 331/3/5
f 338/4/5 333/4/5 332/4/5
f 338/3/5 332/3/5 337/3/5
f 339/4/5 333/4/5 338/4/5
f 340/4/6 341/4/6 347/4/6
f 341/3/6 342/3/6 347/3/6
f 347/3/6 342/3/6 348/3/6
f 342/4/6 343/4/6 349/4/6
f 348/3/6 342/3/6 349/3/6
f 343/3/6 344/3/6 350/3/6
f 349/4/6 343/4/6 350/4/6
f 350/3/6 344/3/6 351/3/6
f 344/2/6 345/2/6 352/2/6
f 351/3/6 344/3/6 352/3/6
f 345/4/6 346/4/6 353/4/6
f 352/2/6 345/2/6 353/2/6
f 347/2/6 348/2/6 354/2/6
f 340/4/6 347/4/6 354/4/6
f 354/2/6 348/2/6 355/2/6
f 350/4/6 351/4/6 356/4/6
f 349/2/6 350/2/6 356/2/6
f 351/3/6 352/3/6 357/3/6
f 356/4/6 351/4/6 357/4/6
f 352/3/6 353/3/6 357/3/6
f 357/3/6 353/3/6 358/3/6
f 353/4/6 346/4/6 359/4/6
f 358/3/6 353/3/6 359/3/6
f 359/4/6 346/4/6 360/4/6
f 340/4/6 354/4/6 361/4/6
f 354/3/6 355/3/6 362/3/6
f 361/4/6 354/4/6 362/4/6
f 355/2/6 348/2/6 363/2/6
f 362/3/6 355/3/6 363/3/6
f 348/1/6 349/1/6 364/1/6
f 363/2/6 348/2/6 364/2/6
f 349/2/6 356/2/6 365/2/6
f 364/1/6 349/1/6 365/1/6
f 356/2/6 357/2/6 365/2/6
f 357/3/6 358/3/6 366/3/6
f 365/2/6 357/2/6 366/2/6
f 363/3/6 364/3/6 367/3/6
f 361/3/6 362/3/6 367/3/6
f 365/3/6 366/3/6 367/3/6
f 364/3/6 365/3/6 367/3/6
f 362/3/6 363/3/6 367/3/6
f 367/3/6 366/3/6 368/3/6
f 368/3/6 366/3/6 369/3/6
f 369/3/6 366/3/6 370/3/6
f 366/3/6 358/3/6 371/3/6
f 370/3/6 366/3/6 371/3/6
f 358/4/6 359/4/6 372/4/6
f 371/3/6 358/3/6 372/3/6
f 359/3/6 360/3/6 373/3/6
f 372/4/6 359/4/6 373/4/6
f 373/3/6 360/3/6 374/3/6
f 361/3/6 367/3/6 375/3/6
f 375/3/6 367/3/6 376/3/6
f 367/4/6 368/4/6 377/4/6
f 376/3/6 367/3/6 377/3/6
f 368/3/6 369/3/6 378/3/6
f 377/4/6 368/4/6 378/4/6
f 369/1/6 370/1/6 379/1/6
f 378/3/6 369/3/6 379/3/6
f 370/2/6 371/2/6 380/2/6
f 379/1/6 370/1/6 380/1/6
f 371/3/6 372/3/6 381/3/6
f 380/2/6 371/2/6 381/2/6
f 372/3/6 373/3/6 381/3/6
f 373/4/6 374/4/6 382/4/6
f 381/3/6 373/3/6 382/3/6
f 382/4/6 374/4/6 383/4/6
f 375/2/6 376/2/6 384/2/6
f 376/4/6 377/4/6 385/4/6
f 384/2/6 376/2/6 385/2/6
f 377/3/6 378/3/6 386/3/6
f 385/4/6 377/4/6 386/4/6
f 378/2/6 379/2/6 387/2/6
f 386/3/6 378/3/6 387/3/6
f 379/2/6 380/2/6 387/2/6
f 380/4/6 381/4/6 388/4/6
f 387/2/6 380/2/6 388/2/6
f 381/2/6 382/2/6 389/2/6
f 382/1/6 383/1/6 390/1/6
f 389/2/6 382/2/6 390/2/6
f 390/1/6 383/1/6 391/1/6
f 384/1/6 385/1/6 392/1/6
f 385/2/6 386/2/6 393/2/6
f 392/1/6 385/1/6 393/1/6
f 386/3/6 387/3/6 394/3/6
f 393/2/6 386/2/6 394/2/6
f 387/3/6 388/3/6 394/3/6
f 394/3/6 388/3/6 395/3/6
f 395/3/6 388/3/6 396/3/6
f 388/4/6 381/4/6 397/4/6
f 396/3/6 388/3/6 397/3/6
f 381/2/6 389/2/6 398/2/6
f 397/4/6 381/4/6 398/4/6
f 390/2/6 391/2/6 399/2/6
f 389/1/6 390/1/6 399/1/6
f 399/2/6 391/2/6 400/2/6
f 392/3/6 393/3/6 401/3/6
f 393/2/6 394/2/6 401/2/6
f 394/2/6 395/2/6 401/2/6
f 401/2/6 395/2/6 402/2/6
f 395/3/6 396/3/6 403/3/6
f 402/2/6 395/2/6 403/2/6
f 398/2/6 389/2/6 404/2/6
f 397/3/6 398/3/6 404/3/6
f 389/1/6 399/1/6 405/1/6
f 404/2/6 389/2/6 405/2/6
f 399/4/6 400/4/6 406/4/6
f 405/1/6 399/1/6 406/1/6
f 406/4/6 400/4/6 407/4/6
f 392/3/6 401/3/6 408/3/6
f 401/4/6 402/4/6 409/4/6
f 408/3/6 401/3/6 409/3/6
f 402/3/6 403/3/6 410/3/6
f 409/4/6 402/4/6 410/4/6
f 396/4/6 397/4/6 411/4/6
f 410/3/6 403/3/6 411/3/6
f 403/3/6 396/3/6 411/3/6
f 404/3/6 405/3/6 412/3/6
f 411/4/6 397/4/6 412/4/6
f 397/3/6 404/3/6 412/3/6
f 405/4/6 406/4/6 413/4/6
f 412/3/6 405/3/6 413/3/6
f 406/3/6 407/3/6 414/3/6
f 413/4/6 406/4/6 414/4/6
f 414/3/6 407/3/6 415/3/6
