# MagicaVoxel @ Ephtracy

# group
o 

# material
mtllib lil lava.mtl
usemtl palette

# normals
vn -1 0 0
vn 1 0 0
vn 0 0 1
vn 0 0 -1
vn 0 -1 0
vn 0 1 0

# texcoords
vt 0.0917969 0.5
vt 0.115234 0.5
vt 0.138672 0.5
vt 0.208984 0.5

# verts
v -0.4 0 0.4
v -0.4 0 -0.5
v -0.4 0.7 0.4
v -0.4 0.7 0.3
v -0.4 0.7 0.2
v -0.4 0.7 0
v -0.4 0.7 -0.1
v -0.4 0.7 -0.2
v -0.4 0.7 -0.3
v -0.4 0.8 0.4
v -0.4 0.8 0.3
v -0.4 0.8 0.2
v -0.4 0.8 0
v -0.4 0.8 -0.1
v -0.4 0.8 -0.2
v -0.4 0.8 -0.3
v -0.4 0.8 -0.5
v 0.5 0 0.4
v 0.5 0 -0.5
v 0.5 0.7 0.4
v 0.5 0.7 0.2
v 0.5 0.7 -0.1
v 0.5 0.7 -0.2
v 0.5 0.7 -0.3
v 0.5 0.7 -0.4
v 0.5 0.8 0.4
v 0.5 0.8 0.2
v 0.5 0.8 -0.1
v 0.5 0.8 -0.2
v 0.5 0.8 -0.3
v 0.5 0.8 -0.4
v 0.5 0.8 -0.5
v -0.4 0 0.4
v -0.4 0.7 0.4
v -0.4 0.8 0.4
v -0.3 0.7 0.4
v -0.3 0.8 0.4
v 0 0.7 0.4
v 0 0.8 0.4
v 0.1 0.7 0.4
v 0.1 0.8 0.4
v 0.3 0.7 0.4
v 0.3 0.8 0.4
v 0.4 0.7 0.4
v 0.4 0.8 0.4
v 0.5 0 0.4
v 0.5 0.7 0.4
v 0.5 0.8 0.4
v -0.4 0 -0.5
v -0.4 0.8 -0.5
v 0 0.7 -0.5
v 0 0.8 -0.5
v 0.1 0.7 -0.5
v 0.1 0.8 -0.5
v 0.2 0.7 -0.5
v 0.2 0.8 -0.5
v 0.3 0.7 -0.5
v 0.3 0.8 -0.5
v 0.4 0.7 -0.5
v 0.4 0.8 -0.5
v 0.5 0 -0.5
v 0.5 0.8 -0.5
v -0.4 0 0.4
v 0.5 0 0.4
v -0.4 0 -0.5
v 0.5 0 -0.5
v -0.4 0.8 0.4
v -0.3 0.8 0.4
v 0 0.8 0.4
v 0.1 0.8 0.4
v 0.3 0.8 0.4
v 0.4 0.8 0.4
v 0.5 0.8 0.4
v -0.4 0.8 0.3
v -0.3 0.8 0.3
v -0.2 0.8 0.3
v -0.1 0.8 0.3
v 0 0.8 0.3
v 0.1 0.8 0.3
v -0.4 0.8 0.2
v -0.3 0.8 0.2
v -0.2 0.8 0.2
v -0.1 0.8 0.2
v 0 0.8 0.2
v 0.1 0.8 0.2
v 0.2 0.8 0.2
v 0.3 0.8 0.2
v 0.4 0.8 0.2
v 0.5 0.8 0.2
v -0.4 0.8 0
v -0.3 0.8 0
v -0.2 0.8 0
v -0.1 0.8 0
v 0 0.8 0
v 0.1 0.8 0
v -0.4 0.8 -0.1
v -0.3 0.8 -0.1
v 0.1 0.8 -0.1
v 0.2 0.8 -0.1
v 0.3 0.8 -0.1
v 0.4 0.8 -0.1
v 0.5 0.8 -0.1
v -0.4 0.8 -0.2
v -0.3 0.8 -0.2
v -0.2 0.8 -0.2
v -0.1 0.8 -0.2
v 0 0.8 -0.2
v 0.4 0.8 -0.2
v 0.5 0.8 -0.2
v -0.4 0.8 -0.3
v -0.3 0.8 -0.3
v 0.1 0.8 -0.3
v 0.2 0.8 -0.3
v 0.3 0.8 -0.3
v 0.4 0.8 -0.3
v 0.5 0.8 -0.3
v -0.3 0.8 -0.4
v -0.2 0.8 -0.4
v -0.1 0.8 -0.4
v 0 0.8 -0.4
v 0.1 0.8 -0.4
v 0.2 0.8 -0.4
v 0.3 0.8 -0.4
v 0.4 0.8 -0.4
v 0.5 0.8 -0.4
v -0.4 0.8 -0.5
v 0 0.8 -0.5
v 0.1 0.8 -0.5
v 0.2 0.8 -0.5
v 0.3 0.8 -0.5
v 0.4 0.8 -0.5
v 0.5 0.8 -0.5

# faces
f 3/1/1 2/1/1 1/1/1
f 4/1/1 2/1/1 3/1/1
f 5/1/1 2/1/1 4/1/1
f 6/1/1 2/1/1 5/1/1
f 7/1/1 2/1/1 6/1/1
f 8/1/1 2/1/1 7/1/1
f 9/1/1 2/1/1 8/1/1
f 10/4/1 4/4/1 3/4/1
f 11/1/1 5/1/1 4/1/1
f 11/4/1 4/4/1 10/4/1
f 12/3/1 6/3/1 5/3/1
f 12/1/1 5/1/1 11/1/1
f 13/2/1 7/2/1 6/2/1
f 13/3/1 6/3/1 12/3/1
f 14/1/1 8/1/1 7/1/1
f 14/2/1 7/2/1 13/2/1
f 15/4/1 9/4/1 8/4/1
f 15/1/1 8/1/1 14/1/1
f 16/1/1 2/1/1 9/1/1
f 16/4/1 9/4/1 15/4/1
f 17/1/1 2/1/1 16/1/1
f 18/1/2 19/1/2 20/1/2
f 20/1/2 19/1/2 21/1/2
f 21/1/2 19/1/2 22/1/2
f 22/1/2 19/1/2 23/1/2
f 23/1/2 19/1/2 24/1/2
f 24/1/2 19/1/2 25/1/2
f 20/2/2 21/2/2 26/2/2
f 21/1/2 22/1/2 27/1/2
f 26/2/2 21/2/2 27/2/2
f 22/4/2 23/4/2 28/4/2
f 27/1/2 22/1/2 28/1/2
f 23/1/2 24/1/2 29/1/2
f 28/4/2 23/4/2 29/4/2
f 24/2/2 25/2/2 30/2/2
f 29/1/2 24/1/2 30/1/2
f 25/1/2 19/1/2 31/1/2
f 30/2/2 25/2/2 31/2/2
f 31/1/2 19/1/2 32/1/2
f 36/1/3 34/1/3 33/1/3
f 36/4/3 35/4/3 34/4/3
f 37/4/3 35/4/3 36/4/3
f 38/1/3 36/1/3 33/1/3
f 38/1/3 37/1/3 36/1/3
f 39/1/3 37/1/3 38/1/3
f 40/1/3 38/1/3 33/1/3
f 40/4/3 39/4/3 38/4/3
f 41/4/3 39/4/3 40/4/3
f 42/1/3 40/1/3 33/1/3
f 42/1/3 41/1/3 40/1/3
f 43/1/3 41/1/3 42/1/3
f 44/1/3 42/1/3 33/1/3
f 44/3/3 43/3/3 42/3/3
f 45/3/3 43/3/3 44/3/3
f 46/1/3 44/1/3 33/1/3
f 47/2/3 45/2/3 44/2/3
f 47/1/3 44/1/3 46/1/3
f 48/2/3 45/2/3 47/2/3
f 49/1/4 50/1/4 51/1/4
f 51/1/4 50/1/4 52/1/4
f 49/1/4 51/1/4 53/1/4
f 51/4/4 52/4/4 53/4/4
f 53/4/4 52/4/4 54/4/4
f 49/1/4 53/1/4 55/1/4
f 53/1/4 54/1/4 55/1/4
f 55/1/4 54/1/4 56/1/4
f 49/1/4 55/1/4 57/1/4
f 55/3/4 56/3/4 57/3/4
f 57/3/4 56/3/4 58/3/4
f 49/1/4 57/1/4 59/1/4
f 57/2/4 58/2/4 59/2/4
f 59/2/4 58/2/4 60/2/4
f 49/1/4 59/1/4 61/1/4
f 59/1/4 60/1/4 61/1/4
f 61/1/4 60/1/4 62/1/4
f 65/1/5 64/1/5 63/1/5
f 66/1/5 64/1/5 65/1/5
f 67/4/6 68/4/6 74/4/6
f 68/1/6 69/1/6 75/1/6
f 74/4/6 68/4/6 75/4/6
f 75/1/6 69/1/6 76/1/6
f 76/1/6 69/1/6 77/1/6
f 69/4/6 70/4/6 78/4/6
f 77/1/6 69/1/6 78/1/6
f 70/1/6 71/1/6 79/1/6
f 78/4/6 70/4/6 79/4/6
f 74/1/6 75/1/6 80/1/6
f 75/3/6 76/3/6 81/3/6
f 80/1/6 75/1/6 81/1/6
f 76/2/6 77/2/6 82/2/6
f 81/3/6 76/3/6 82/3/6
f 77/1/6 78/1/6 83/1/6
f 82/2/6 77/2/6 83/2/6
f 78/1/6 79/1/6 83/1/6
f 83/1/6 79/1/6 84/1/6
f 79/1/6 71/1/6 85/1/6
f 84/1/6 79/1/6 85/1/6
f 85/1/6 71/1/6 86/1/6
f 71/3/6 72/3/6 87/3/6
f 86/1/6 71/1/6 87/1/6
f 72/2/6 73/2/6 88/2/6
f 87/3/6 72/3/6 88/3/6
f 88/2/6 73/2/6 89/2/6
f 80/3/6 81/3/6 90/3/6
f 81/2/6 82/2/6 91/2/6
f 90/3/6 81/3/6 91/3/6
f 82/1/6 83/1/6 92/1/6
f 91/2/6 82/2/6 92/2/6
f 83/3/6 84/3/6 93/3/6
f 92/1/6 83/1/6 93/1/6
f 84/2/6 85/2/6 94/2/6
f 93/3/6 84/3/6 94/3/6
f 85/1/6 86/1/6 95/1/6
f 94/2/6 85/2/6 95/2/6
f 90/2/6 91/2/6 96/2/6
f 91/1/6 92/1/6 97/1/6
f 96/2/6 91/2/6 97/2/6
f 95/1/6 86/1/6 98/1/6
f 94/1/6 95/1/6 98/1/6
f 86/3/6 87/3/6 99/3/6
f 98/1/6 86/1/6 99/1/6
f 87/2/6 88/2/6 100/2/6
f 99/3/6 87/3/6 100/3/6
f 88/1/6 89/1/6 101/1/6
f 100/2/6 88/2/6 101/2/6
f 101/1/6 89/1/6 102/1/6
f 96/1/6 97/1/6 103/1/6
f 97/1/6 92/1/6 104/1/6
f 103/1/6 97/1/6 104/1/6
f 92/3/6 93/3/6 105/3/6
f 104/1/6 92/1/6 105/1/6
f 93/2/6 94/2/6 106/2/6
f 105/3/6 93/3/6 106/3/6
f 94/1/6 98/1/6 107/1/6
f 106/2/6 94/2/6 107/2/6
f 100/1/6 101/1/6 108/1/6
f 101/4/6 102/4/6 108/4/6
f 108/4/6 102/4/6 109/4/6
f 103/4/6 104/4/6 110/4/6
f 104/3/6 105/3/6 111/3/6
f 110/4/6 104/4/6 111/4/6
f 98/3/6 99/3/6 112/3/6
f 107/1/6 98/1/6 112/1/6
f 106/1/6 107/1/6 112/1/6
f 99/2/6 100/2/6 113/2/6
f 112/3/6 99/3/6 113/3/6
f 108/1/6 109/1/6 114/1/6
f 113/2/6 100/2/6 114/2/6
f 100/1/6 108/1/6 114/1/6
f 114/1/6 109/1/6 115/1/6
f 115/1/6 109/1/6 116/1/6
f 111/3/6 105/3/6 117/3/6
f 110/1/6 111/1/6 117/1/6
f 105/2/6 106/2/6 118/2/6
f 117/3/6 105/3/6 118/3/6
f 106/1/6 112/1/6 119/1/6
f 118/2/6 106/2/6 119/2/6
f 112/1/6 113/1/6 119/1/6
f 113/1/6 114/1/6 119/1/6
f 119/1/6 114/1/6 120/1/6
f 120/1/6 114/1/6 121/1/6
f 121/1/6 114/1/6 122/1/6
f 114/3/6 115/3/6 123/3/6
f 122/1/6 114/1/6 123/1/6
f 115/2/6 116/2/6 124/2/6
f 123/3/6 115/3/6 124/3/6
f 124/2/6 116/2/6 125/2/6
f 110/1/6 117/1/6 126/1/6
f 117/1/6 118/1/6 126/1/6
f 118/1/6 119/1/6 126/1/6
f 119/1/6 120/1/6 126/1/6
f 120/4/6 121/4/6 127/4/6
f 126/1/6 120/1/6 127/1/6
f 121/1/6 122/1/6 128/1/6
f 127/4/6 121/4/6 128/4/6
f 122/3/6 123/3/6 129/3/6
f 128/1/6 122/1/6 129/1/6
f 123/2/6 124/2/6 130/2/6
f 129/3/6 123/3/6 130/3/6
f 124/1/6 125/1/6 131/1/6
f 130/2/6 124/2/6 131/2/6
f 131/1/6 125/1/6 132/1/6
