# MagicaVoxel @ Ephtracy

# group
o 

# material
mtllib lil mech.mtl
usemtl palette

# normals
vn -1 0 0
vn 1 0 0
vn 0 0 1
vn 0 0 -1
vn 0 -1 0
vn 0 1 0

# texcoords
vt 0.841797 0.5
vt 0.865234 0.5
vt 0.982422 0.5
vt 0.986328 0.5
vt 0.990234 0.5

# verts
v -0.5 -2.2 0.5
v -0.5 -2.2 0.1
v -0.5 -2.2 -0.1
v -0.5 -2.2 -0.5
v -0.5 -2.1 0.4
v -0.5 -2.1 0.3
v -0.5 -2.1 -0.3
v -0.5 -2.1 -0.4
v -0.5 -2 0.4
v -0.5 -2 0.3
v -0.5 -2 -0.3
v -0.5 -2 -0.4
v -0.5 -1.4 0.4
v -0.5 -1.4 0.3
v -0.5 -1.4 -0.3
v -0.5 -1.4 -0.4
v -0.5 -1.3 0.4
v -0.5 -1.3 0.3
v -0.5 -1.3 -0.3
v -0.5 -1.3 -0.4
v -0.5 -1.2 0.5
v -0.5 -1.2 0.1
v -0.5 -1.2 -0.1
v -0.5 -1.2 -0.5
v -0.3 -3.2 0.3
v -0.3 -3.2 0.1
v -0.3 -3.2 -0.1
v -0.3 -3.2 -0.3
v -0.3 -3.1 0.3
v -0.3 -3.1 0.1
v -0.3 -3.1 -0.1
v -0.3 -3.1 -0.3
v -0.2 -3.2 0.4
v -0.2 -3.2 0.3
v -0.2 -3.2 -0.3
v -0.2 -3.2 -0.4
v -0.2 -3.1 0.4
v -0.2 -3.1 0.3
v -0.2 -3.1 0.1
v -0.2 -3.1 -0.1
v -0.2 -3.1 -0.3
v -0.2 -3.1 -0.4
v -0.2 -2.4 0.4
v -0.2 -2.4 0.3
v -0.2 -2.4 -0.3
v -0.2 -2.4 -0.4
v -0.2 -2.2 0.4
v -0.2 -2.2 0.1
v -0.2 -2.2 -0.1
v -0.2 -2.2 -0.4
v 0.2 -1.8 0.7
v 0.2 -1.8 0.5
v 0.2 -1.8 -0.5
v 0.2 -1.8 -0.7
v 0.2 -1.6 0.7
v 0.2 -1.6 0.5
v 0.2 -1.6 -0.5
v 0.2 -1.6 -0.7
v 5.96046e-08 -3.2 0.4
v 5.96046e-08 -3.2 0.3
v 5.96046e-08 -3.2 -0.3
v 5.96046e-08 -3.2 -0.4
v 5.96046e-08 -3.1 0.4
v 5.96046e-08 -3.1 0.3
v 5.96046e-08 -3.1 0.1
v 5.96046e-08 -3.1 -0.1
v 5.96046e-08 -3.1 -0.3
v 5.96046e-08 -3.1 -0.4
v 5.96046e-08 -2.8 0.3
v 5.96046e-08 -2.8 0.1
v 5.96046e-08 -2.8 -0.1
v 5.96046e-08 -2.8 -0.3
v 0.1 -3.2 0.3
v 0.1 -3.2 0.1
v 0.1 -3.2 -0.1
v 0.1 -3.2 -0.3
v 0.1 -3.1 0.3
v 0.1 -3.1 0.1
v 0.1 -3.1 -0.1
v 0.1 -3.1 -0.3
v 0.1 -2.8 0.3
v 0.1 -2.8 0.1
v 0.1 -2.8 -0.1
v 0.1 -2.8 -0.3
v 0.1 -2.4 0.3
v 0.1 -2.4 0.1
v 0.1 -2.4 -0.1
v 0.1 -2.4 -0.3
v 0.2 -2.4 0.4
v 0.2 -2.4 0.1
v 0.2 -2.4 -0.1
v 0.2 -2.4 -0.4
v 0.2 -2.2 0.4
v 0.2 -2.2 0.1
v 0.2 -2.2 -0.1
v 0.2 -2.2 -0.4
v 0.4 -2.1 0.2
v 0.4 -2.1 0.1
v 0.4 -2.1 -0.1
v 0.4 -2.1 -0.2
v 0.4 -2 0.3
v 0.4 -2 0.2
v 0.4 -2 -0.2
v 0.4 -2 -0.3
v 0.4 -1.9 0.4
v 0.4 -1.9 0.3
v 0.4 -1.9 0.2
v 0.4 -1.9 -0.2
v 0.4 -1.9 -0.3
v 0.4 -1.9 -0.4
v 0.4 -1.8 0.1
v 0.4 -1.8 -0.1
v 0.4 -1.6 0.1
v 0.4 -1.6 -0.1
v 0.4 -1.5 0.4
v 0.4 -1.5 0.3
v 0.4 -1.5 0.2
v 0.4 -1.5 0.1
v 0.4 -1.5 -0.1
v 0.4 -1.5 -0.2
v 0.4 -1.5 -0.3
v 0.4 -1.5 -0.4
v 0.4 -1.4 0.3
v 0.4 -1.4 0.2
v 0.4 -1.4 0.1
v 0.4 -1.4 -0.1
v 0.4 -1.4 -0.2
v 0.4 -1.4 -0.3
v 0.4 -1.3 0.2
v 0.4 -1.3 0.1
v 0.4 -1.3 -0.1
v 0.4 -1.3 -0.2
v 0.5 -2.2 0.5
v 0.5 -2.2 0.1
v 0.5 -2.2 -0.1
v 0.5 -2.2 -0.5
v 0.5 -2.1 0.4
v 0.5 -2.1 0.3
v 0.5 -2.1 0.2
v 0.5 -2.1 0.1
v 0.5 -2.1 -0.1
v 0.5 -2.1 -0.2
v 0.5 -2.1 -0.3
v 0.5 -2.1 -0.4
v 0.5 -2 0.4
v 0.5 -2 0.3
v 0.5 -2 0.2
v 0.5 -2 -0.2
v 0.5 -2 -0.3
v 0.5 -2 -0.4
v 0.5 -1.9 0.4
v 0.5 -1.9 0.3
v 0.5 -1.9 -0.3
v 0.5 -1.9 -0.4
v 0.5 -1.8 0.5
v 0.5 -1.8 -0.5
v 0.5 -1.6 0.5
v 0.5 -1.6 -0.5
v 0.5 -1.5 0.4
v 0.5 -1.5 0.3
v 0.5 -1.5 -0.3
v 0.5 -1.5 -0.4
v 0.5 -1.4 0.4
v 0.5 -1.4 0.3
v 0.5 -1.4 0.2
v 0.5 -1.4 -0.2
v 0.5 -1.4 -0.3
v 0.5 -1.4 -0.4
v 0.5 -1.3 0.4
v 0.5 -1.3 0.3
v 0.5 -1.3 0.2
v 0.5 -1.3 0.1
v 0.5 -1.3 -0.1
v 0.5 -1.3 -0.2
v 0.5 -1.3 -0.3
v 0.5 -1.3 -0.4
v 0.5 -1.2 0.5
v 0.5 -1.2 0.1
v 0.5 -1.2 -0.1
v 0.5 -1.2 -0.5
v 0.8 -1.8 0.7
v 0.8 -1.8 0.5
v 0.8 -1.8 -0.5
v 0.8 -1.8 -0.7
v 0.8 -1.6 0.7
v 0.8 -1.6 0.5
v 0.8 -1.6 -0.5
v 0.8 -1.6 -0.7
v 0.2 -1.8 0.7
v 0.2 -1.6 0.7
v 0.8 -1.8 0.7
v 0.8 -1.6 0.7
v -0.5 -2.2 0.5
v -0.5 -1.2 0.5
v -0.4 -2.1 0.5
v -0.4 -2 0.5
v -0.4 -1.4 0.5
v -0.4 -1.3 0.5
v -0.3 -2.1 0.5
v -0.3 -2 0.5
v -0.3 -1.4 0.5
v -0.3 -1.3 0.5
v 0.2 -1.8 0.5
v 0.2 -1.6 0.5
v 0.3 -2.1 0.5
v 0.3 -2 0.5
v 0.3 -1.4 0.5
v 0.3 -1.3 0.5
v 0.4 -2.1 0.5
v 0.4 -2 0.5
v 0.4 -1.4 0.5
v 0.4 -1.3 0.5
v 0.5 -2.2 0.5
v 0.5 -1.8 0.5
v 0.5 -1.6 0.5
v 0.5 -1.2 0.5
v -0.2 -3.2 0.4
v -0.2 -3.1 0.4
v -0.2 -2.4 0.4
v -0.2 -2.2 0.4
v 5.96046e-08 -3.2 0.4
v 5.96046e-08 -3.1 0.4
v 0.2 -2.4 0.4
v 0.2 -2.2 0.4
v -0.3 -3.2 0.3
v -0.3 -3.1 0.3
v -0.2 -3.2 0.3
v -0.2 -3.1 0.3
v -0.2 -2.4 0.3
v 5.96046e-08 -3.2 0.3
v 5.96046e-08 -3.1 0.3
v 5.96046e-08 -2.8 0.3
v 0.1 -3.2 0.3
v 0.1 -3.1 0.3
v 0.1 -2.8 0.3
v 0.1 -2.4 0.3
v -0.3 -3.2 -0.1
v -0.3 -3.1 -0.1
v -0.2 -3.1 -0.1
v -0.2 -2.2 -0.1
v 5.96046e-08 -3.1 -0.1
v 5.96046e-08 -2.8 -0.1
v 0.1 -3.2 -0.1
v 0.1 -3.1 -0.1
v 0.1 -2.8 -0.1
v 0.1 -2.4 -0.1
v 0.2 -2.4 -0.1
v 0.2 -2.2 -0.1
v 0.4 -2.1 -0.2
v 0.4 -2 -0.2
v 0.4 -1.4 -0.2
v 0.4 -1.3 -0.2
v 0.5 -2.1 -0.2
v 0.5 -2 -0.2
v 0.5 -1.4 -0.2
v 0.5 -1.3 -0.2
v 0.4 -2 -0.3
v 0.4 -1.9 -0.3
v 0.4 -1.5 -0.3
v 0.4 -1.4 -0.3
v 0.5 -2 -0.3
v 0.5 -1.9 -0.3
v 0.5 -1.5 -0.3
v 0.5 -1.4 -0.3
v 0.4 -1.9 -0.4
v 0.4 -1.5 -0.4
v 0.5 -1.9 -0.4
v 0.5 -1.5 -0.4
v 0.5 -1.8 -0.5
v 0.5 -1.6 -0.5
v 0.8 -1.8 -0.5
v 0.8 -1.6 -0.5
v 0.5 -1.8 0.5
v 0.5 -1.6 0.5
v 0.8 -1.8 0.5
v 0.8 -1.6 0.5
v 0.4 -1.9 0.4
v 0.4 -1.5 0.4
v 0.5 -1.9 0.4
v 0.5 -1.5 0.4
v 0.4 -2 0.3
v 0.4 -1.9 0.3
v 0.4 -1.5 0.3
v 0.4 -1.4 0.3
v 0.5 -2 0.3
v 0.5 -1.9 0.3
v 0.5 -1.5 0.3
v 0.5 -1.4 0.3
v 0.4 -2.1 0.2
v 0.4 -2 0.2
v 0.4 -1.4 0.2
v 0.4 -1.3 0.2
v 0.5 -2.1 0.2
v 0.5 -2 0.2
v 0.5 -1.4 0.2
v 0.5 -1.3 0.2
v -0.3 -3.2 0.1
v -0.3 -3.1 0.1
v -0.2 -3.1 0.1
v -0.2 -2.2 0.1
v 5.96046e-08 -3.1 0.1
v 5.96046e-08 -2.8 0.1
v 0.1 -3.2 0.1
v 0.1 -3.1 0.1
v 0.1 -2.8 0.1
v 0.1 -2.4 0.1
v 0.2 -2.4 0.1
v 0.2 -2.2 0.1
v -0.3 -3.2 -0.3
v -0.3 -3.1 -0.3
v -0.2 -3.2 -0.3
v -0.2 -3.1 -0.3
v -0.2 -2.4 -0.3
v 5.96046e-08 -3.2 -0.3
v 5.96046e-08 -3.1 -0.3
v 5.96046e-08 -2.8 -0.3
v 0.1 -3.2 -0.3
v 0.1 -3.1 -0.3
v 0.1 -2.8 -0.3
v 0.1 -2.4 -0.3
v -0.2 -3.2 -0.4
v -0.2 -3.1 -0.4
v -0.2 -2.4 -0.4
v -0.2 -2.2 -0.4
v 5.96046e-08 -3.2 -0.4
v 5.96046e-08 -3.1 -0.4
v 0.2 -2.4 -0.4
v 0.2 -2.2 -0.4
v -0.5 -2.2 -0.5
v -0.5 -1.2 -0.5
v -0.4 -2.1 -0.5
v -0.4 -2 -0.5
v -0.4 -1.4 -0.5
v -0.4 -1.3 -0.5
v -0.3 -2.1 -0.5
v -0.3 -2 -0.5
v -0.3 -1.4 -0.5
v -0.3 -1.3 -0.5
v 0.2 -1.8 -0.5
v 0.2 -1.6 -0.5
v 0.3 -2.1 -0.5
v 0.3 -2 -0.5
v 0.3 -1.4 -0.5
v 0.3 -1.3 -0.5
v 0.4 -2.1 -0.5
v 0.4 -2 -0.5
v 0.4 -1.4 -0.5
v 0.4 -1.3 -0.5
v 0.5 -2.2 -0.5
v 0.5 -1.8 -0.5
v 0.5 -1.6 -0.5
v 0.5 -1.2 -0.5
v 0.2 -1.8 -0.7
v 0.2 -1.6 -0.7
v 0.8 -1.8 -0.7
v 0.8 -1.6 -0.7
v -0.2 -3.2 0.4
v 5.96046e-08 -3.2 0.4
v -0.3 -3.2 0.3
v -0.2 -3.2 0.3
v 5.96046e-08 -3.2 0.3
v 0.1 -3.2 0.3
v -0.3 -3.2 0.1
v 0.1 -3.2 0.1
v -0.3 -3.2 -0.1
v 0.1 -3.2 -0.1
v -0.3 -3.2 -0.3
v -0.2 -3.2 -0.3
v 5.96046e-08 -3.2 -0.3
v 0.1 -3.2 -0.3
v -0.2 -3.2 -0.4
v 5.96046e-08 -3.2 -0.4
v 5.96046e-08 -2.8 0.3
v 0.1 -2.8 0.3
v 5.96046e-08 -2.8 0.1
v 0.1 -2.8 0.1
v 5.96046e-08 -2.8 -0.1
v 0.1 -2.8 -0.1
v 5.96046e-08 -2.8 -0.3
v 0.1 -2.8 -0.3
v -0.2 -2.4 0.4
v 0.2 -2.4 0.4
v -0.2 -2.4 0.3
v 0.1 -2.4 0.3
v 0.1 -2.4 0.1
v 0.2 -2.4 0.1
v 0.1 -2.4 -0.1
v 0.2 -2.4 -0.1
v -0.2 -2.4 -0.3
v 0.1 -2.4 -0.3
v -0.2 -2.4 -0.4
v 0.2 -2.4 -0.4
v -0.5 -2.2 0.5
v 0.5 -2.2 0.5
v -0.4 -2.2 0.4
v -0.3 -2.2 0.4
v -0.2 -2.2 0.4
v 0.2 -2.2 0.4
v 0.3 -2.2 0.4
v 0.4 -2.2 0.4
v -0.4 -2.2 0.3
v -0.3 -2.2 0.3
v 0.3 -2.2 0.3
v 0.4 -2.2 0.3
v -0.5 -2.2 0.1
v -0.2 -2.2 0.1
v 0.2 -2.2 0.1
v 0.5 -2.2 0.1
v -0.5 -2.2 -0.1
v -0.2 -2.2 -0.1
v 0.2 -2.2 -0.1
v 0.5 -2.2 -0.1
v -0.4 -2.2 -0.3
v -0.3 -2.2 -0.3
v 0.3 -2.2 -0.3
v 0.4 -2.2 -0.3
v -0.4 -2.2 -0.4
v -0.3 -2.2 -0.4
v -0.2 -2.2 -0.4
v 0.2 -2.2 -0.4
v 0.3 -2.2 -0.4
v 0.4 -2.2 -0.4
v -0.5 -2.2 -0.5
v 0.5 -2.2 -0.5
v 0.2 -1.8 0.7
v 0.8 -1.8 0.7
v 0.2 -1.8 0.5
v 0.5 -1.8 0.5
v 0.8 -1.8 0.5
v 0.2 -1.8 -0.5
v 0.5 -1.8 -0.5
v 0.8 -1.8 -0.5
v 0.2 -1.8 -0.7
v 0.8 -1.8 -0.7
v 0.4 -1.5 0.4
v 0.5 -1.5 0.4
v 0.4 -1.5 0.3
v 0.5 -1.5 0.3
v 0.4 -1.5 -0.3
v 0.5 -1.5 -0.3
v 0.4 -1.5 -0.4
v 0.5 -1.5 -0.4
v 0.4 -1.4 0.3
v 0.5 -1.4 0.3
v 0.4 -1.4 0.2
v 0.5 -1.4 0.2
v 0.4 -1.4 -0.2
v 0.5 -1.4 -0.2
v 0.4 -1.4 -0.3
v 0.5 -1.4 -0.3
v 0.4 -1.3 0.2
v 0.5 -1.3 0.2
v 0.4 -1.3 0.1
v 0.5 -1.3 0.1
v 0.4 -1.3 -0.1
v 0.5 -1.3 -0.1
v 0.4 -1.3 -0.2
v 0.5 -1.3 -0.2
v -0.2 -3.1 0.4
v 5.96046e-08 -3.1 0.4
v -0.3 -3.1 0.3
v -0.2 -3.1 0.3
v 5.96046e-08 -3.1 0.3
v 0.1 -3.1 0.3
v -0.3 -3.1 0.1
v -0.2 -3.1 0.1
v 5.96046e-08 -3.1 0.1
v 0.1 -3.1 0.1
v -0.3 -3.1 -0.1
v -0.2 -3.1 -0.1
v 5.96046e-08 -3.1 -0.1
v 0.1 -3.1 -0.1
v -0.3 -3.1 -0.3
v -0.2 -3.1 -0.3
v 5.96046e-08 -3.1 -0.3
v 0.1 -3.1 -0.3
v -0.2 -3.1 -0.4
v 5.96046e-08 -3.1 -0.4
v 0.4 -2.1 0.2
v 0.5 -2.1 0.2
v 0.4 -2.1 0.1
v 0.5 -2.1 0.1
v 0.4 -2.1 -0.1
v 0.5 -2.1 -0.1
v 0.4 -2.1 -0.2
v 0.5 -2.1 -0.2
v 0.4 -2 0.3
v 0.5 -2 0.3
v 0.4 -2 0.2
v 0.5 -2 0.2
v 0.4 -2 -0.2
v 0.5 -2 -0.2
v 0.4 -2 -0.3
v 0.5 -2 -0.3
v 0.4 -1.9 0.4
v 0.5 -1.9 0.4
v 0.4 -1.9 0.3
v 0.5 -1.9 0.3
v 0.4 -1.9 -0.3
v 0.5 -1.9 -0.3
v 0.4 -1.9 -0.4
v 0.5 -1.9 -0.4
v 0.2 -1.6 0.7
v 0.8 -1.6 0.7
v 0.2 -1.6 0.5
v 0.5 -1.6 0.5
v 0.8 -1.6 0.5
v 0.2 -1.6 -0.5
v 0.5 -1.6 -0.5
v 0.8 -1.6 -0.5
v 0.2 -1.6 -0.7
v 0.8 -1.6 -0.7
v -0.5 -1.2 0.5
v 0.5 -1.2 0.5
v -0.4 -1.2 0.4
v -0.3 -1.2 0.4
v 0.3 -1.2 0.4
v 0.4 -1.2 0.4
v -0.4 -1.2 0.3
v -0.3 -1.2 0.3
v 0.3 -1.2 0.3
v 0.4 -1.2 0.3
v -0.5 -1.2 0.1
v 0.5 -1.2 0.1
v -0.5 -1.2 -0.1
v 0.5 -1.2 -0.1
v -0.4 -1.2 -0.3
v -0.3 -1.2 -0.3
v 0.3 -1.2 -0.3
v 0.4 -1.2 -0.3
v -0.4 -1.2 -0.4
v -0.3 -1.2 -0.4
v 0.3 -1.2 -0.4
v 0.4 -1.2 -0.4
v -0.5 -1.2 -0.5
v 0.5 -1.2 -0.5

# faces
f 5/4/1 2/4/1 1/4/1
f 6/4/1 2/4/1 5/4/1
f 7/4/1 4/4/1 3/4/1
f 8/4/1 4/4/1 7/4/1
f 9/4/1 5/4/1 1/4/1
f 9/5/1 6/5/1 5/5/1
f 10/4/1 2/4/1 6/4/1
f 10/5/1 6/5/1 9/5/1
f 11/5/1 8/5/1 7/5/1
f 11/4/1 7/4/1 3/4/1
f 12/4/1 4/4/1 8/4/1
f 12/5/1 8/5/1 11/5/1
f 13/4/1 9/4/1 1/4/1
f 13/4/1 10/4/1 9/4/1
f 14/4/1 2/4/1 10/4/1
f 14/4/1 10/4/1 13/4/1
f 15/4/1 11/4/1 3/4/1
f 15/4/1 12/4/1 11/4/1
f 16/4/1 4/4/1 12/4/1
f 16/4/1 12/4/1 15/4/1
f 17/4/1 13/4/1 1/4/1
f 17/5/1 14/5/1 13/5/1
f 18/4/1 2/4/1 14/4/1
f 18/5/1 14/5/1 17/5/1
f 19/4/1 15/4/1 3/4/1
f 19/5/1 16/5/1 15/5/1
f 20/4/1 4/4/1 16/4/1
f 20/5/1 16/5/1 19/5/1
f 21/4/1 17/4/1 1/4/1
f 21/4/1 18/4/1 17/4/1
f 22/4/1 2/4/1 18/4/1
f 22/4/1 18/4/1 21/4/1
f 22/3/1 3/3/1 2/3/1
f 23/4/1 20/4/1 19/4/1
f 23/3/1 3/3/1 22/3/1
f 23/4/1 19/4/1 3/4/1
f 24/4/1 4/4/1 20/4/1
f 24/4/1 20/4/1 23/4/1
f 29/4/1 26/4/1 25/4/1
f 30/4/1 26/4/1 29/4/1
f 31/4/1 28/4/1 27/4/1
f 32/4/1 28/4/1 31/4/1
f 37/4/1 34/4/1 33/4/1
f 38/4/1 34/4/1 37/4/1
f 41/4/1 36/4/1 35/4/1
f 42/4/1 36/4/1 41/4/1
f 44/4/1 39/4/1 38/4/1
f 45/4/1 41/4/1 40/4/1
f 47/4/1 44/4/1 43/4/1
f 48/4/1 39/4/1 44/4/1
f 48/4/1 44/4/1 47/4/1
f 49/4/1 46/4/1 45/4/1
f 49/4/1 45/4/1 40/4/1
f 50/4/1 46/4/1 49/4/1
f 55/4/1 52/4/1 51/4/1
f 56/4/1 52/4/1 55/4/1
f 57/4/1 54/4/1 53/4/1
f 58/4/1 54/4/1 57/4/1
f 59/4/2 60/4/2 63/4/2
f 63/4/2 60/4/2 64/4/2
f 61/4/2 62/4/2 67/4/2
f 67/4/2 62/4/2 68/4/2
f 64/4/2 65/4/2 69/4/2
f 69/4/2 65/4/2 70/4/2
f 66/4/2 67/4/2 71/4/2
f 71/4/2 67/4/2 72/4/2
f 73/4/2 74/4/2 77/4/2
f 77/4/2 74/4/2 78/4/2
f 75/4/2 76/4/2 79/4/2
f 79/4/2 76/4/2 80/4/2
f 81/4/2 82/4/2 85/4/2
f 85/4/2 82/4/2 86/4/2
f 83/4/2 84/4/2 87/4/2
f 87/4/2 84/4/2 88/4/2
f 89/4/2 90/4/2 93/4/2
f 93/4/2 90/4/2 94/4/2
f 91/4/2 92/4/2 95/4/2
f 95/4/2 92/4/2 96/4/2
f 97/3/2 98/3/2 102/3/2
f 99/3/2 100/3/2 102/3/2
f 98/3/2 99/3/2 102/3/2
f 102/3/2 100/3/2 103/3/2
f 101/4/2 102/4/2 106/4/2
f 102/1/2 103/1/2 107/1/2
f 106/4/2 102/4/2 107/4/2
f 103/4/2 104/4/2 108/4/2
f 107/1/2 103/1/2 108/1/2
f 108/4/2 104/4/2 109/4/2
f 106/4/2 107/4/2 111/4/2
f 107/4/2 108/4/2 111/4/2
f 108/4/2 109/4/2 111/4/2
f 111/4/2 109/4/2 112/4/2
f 106/4/2 111/4/2 113/4/2
f 111/1/2 112/1/2 113/1/2
f 112/4/2 109/4/2 114/4/2
f 113/1/2 112/1/2 114/1/2
f 105/3/2 106/3/2 115/3/2
f 106/4/2 113/4/2 116/4/2
f 115/3/2 106/3/2 116/3/2
f 116/4/2 113/4/2 117/4/2
f 113/2/2 114/2/2 118/2/2
f 117/4/2 113/4/2 118/4/2
f 114/4/2 109/4/2 119/4/2
f 118/2/2 114/2/2 119/2/2
f 119/4/2 109/4/2 120/4/2
f 109/3/2 110/3/2 121/3/2
f 120/4/2 109/4/2 121/4/2
f 121/3/2 110/3/2 122/3/2
f 116/3/2 117/3/2 123/3/2
f 117/2/2 118/2/2 124/2/2
f 123/3/2 117/3/2 124/3/2
f 118/4/2 119/4/2 125/4/2
f 124/2/2 118/2/2 125/2/2
f 119/2/2 120/2/2 126/2/2
f 125/4/2 119/4/2 126/4/2
f 120/3/2 121/3/2 127/3/2
f 126/2/2 120/2/2 127/2/2
f 127/3/2 121/3/2 128/3/2
f 124/3/2 125/3/2 129/3/2
f 125/3/2 126/3/2 129/3/2
f 126/3/2 127/3/2 129/3/2
f 129/3/2 127/3/2 130/3/2
f 130/3/2 127/3/2 131/3/2
f 131/3/2 127/3/2 132/3/2
f 133/4/2 134/4/2 137/4/2
f 137/4/2 134/4/2 138/4/2
f 138/4/2 134/4/2 139/4/2
f 134/3/2 135/3/2 140/3/2
f 139/4/2 134/4/2 140/4/2
f 135/4/2 136/4/2 141/4/2
f 140/3/2 135/3/2 141/3/2
f 141/4/2 136/4/2 142/4/2
f 142/4/2 136/4/2 143/4/2
f 143/4/2 136/4/2 144/4/2
f 133/4/2 137/4/2 145/4/2
f 137/5/2 138/5/2 145/5/2
f 138/4/2 139/4/2 146/4/2
f 145/5/2 138/5/2 146/5/2
f 146/4/2 139/4/2 147/4/2
f 142/4/2 143/4/2 148/4/2
f 143/5/2 144/5/2 149/5/2
f 148/4/2 143/4/2 149/4/2
f 144/4/2 136/4/2 150/4/2
f 149/5/2 144/5/2 150/5/2
f 133/4/2 145/4/2 151/4/2
f 145/4/2 146/4/2 151/4/2
f 151/4/2 146/4/2 152/4/2
f 149/4/2 150/4/2 153/4/2
f 150/4/2 136/4/2 154/4/2
f 153/4/2 150/4/2 154/4/2
f 133/4/2 151/4/2 155/4/2
f 154/4/2 136/4/2 156/4/2
f 155/4/2 151/4/2 157/4/2
f 154/4/2 156/4/2 158/4/2
f 157/4/2 151/4/2 159/4/2
f 154/4/2 158/4/2 162/4/2
f 159/4/2 160/4/2 163/4/2
f 157/4/2 159/4/2 163/4/2
f 163/4/2 160/4/2 164/4/2
f 161/4/2 162/4/2 167/4/2
f 162/4/2 158/4/2 168/4/2
f 167/4/2 162/4/2 168/4/2
f 157/4/2 163/4/2 169/4/2
f 163/5/2 164/5/2 169/5/2
f 164/4/2 165/4/2 170/4/2
f 169/5/2 164/5/2 170/5/2
f 170/4/2 165/4/2 171/4/2
f 166/4/2 167/4/2 174/4/2
f 167/5/2 168/5/2 175/5/2
f 174/4/2 167/4/2 175/4/2
f 168/4/2 158/4/2 176/4/2
f 175/5/2 168/5/2 176/5/2
f 157/4/2 169/4/2 177/4/2
f 169/4/2 170/4/2 177/4/2
f 170/4/2 171/4/2 177/4/2
f 171/4/2 172/4/2 177/4/2
f 172/3/2 173/3/2 178/3/2
f 177/4/2 172/4/2 178/4/2
f 174/4/2 175/4/2 179/4/2
f 178/3/2 173/3/2 179/3/2
f 173/4/2 174/4/2 179/4/2
f 175/4/2 176/4/2 179/4/2
f 176/4/2 158/4/2 180/4/2
f 179/4/2 176/4/2 180/4/2
f 181/4/2 182/4/2 185/4/2
f 185/4/2 182/4/2 186/4/2
f 183/4/2 184/4/2 187/4/2
f 187/4/2 184/4/2 188/4/2
f 191/4/3 190/4/3 189/4/3
f 192/4/3 190/4/3 191/4/3
f 195/4/3 194/4/3 193/4/3
f 196/4/3 194/4/3 195/4/3
f 197/4/3 194/4/3 196/4/3
f 198/4/3 194/4/3 197/4/3
f 199/4/3 195/4/3 193/4/3
f 199/5/3 196/5/3 195/5/3
f 200/4/3 197/4/3 196/4/3
f 200/5/3 196/5/3 199/5/3
f 201/5/3 198/5/3 197/5/3
f 201/4/3 197/4/3 200/4/3
f 202/4/3 194/4/3 198/4/3
f 202/5/3 198/5/3 201/5/3
f 203/4/3 201/4/3 200/4/3
f 203/4/3 200/4/3 199/4/3
f 203/4/3 202/4/3 201/4/3
f 204/4/3 202/4/3 203/4/3
f 205/4/3 199/4/3 193/4/3
f 205/4/3 203/4/3 199/4/3
f 206/4/3 203/4/3 205/4/3
f 207/4/3 202/4/3 204/4/3
f 208/4/3 194/4/3 202/4/3
f 208/4/3 202/4/3 207/4/3
f 209/4/3 205/4/3 193/4/3
f 209/5/3 206/5/3 205/5/3
f 210/4/3 203/4/3 206/4/3
f 210/5/3 206/5/3 209/5/3
f 211/4/3 207/4/3 204/4/3
f 211/5/3 208/5/3 207/5/3
f 212/4/3 194/4/3 208/4/3
f 212/5/3 208/5/3 211/5/3
f 213/4/3 209/4/3 193/4/3
f 213/4/3 210/4/3 209/4/3
f 214/4/3 203/4/3 210/4/3
f 214/4/3 210/4/3 213/4/3
f 215/4/3 211/4/3 204/4/3
f 215/4/3 212/4/3 211/4/3
f 216/4/3 194/4/3 212/4/3
f 216/4/3 212/4/3 215/4/3
f 221/4/3 218/4/3 217/4/3
f 222/4/3 218/4/3 221/4/3
f 223/4/3 220/4/3 219/4/3
f 224/4/3 220/4/3 223/4/3
f 227/4/3 226/4/3 225/4/3
f 228/4/3 226/4/3 227/4/3
f 231/4/3 229/4/3 228/4/3
f 232/4/3 229/4/3 231/4/3
f 233/4/3 231/4/3 230/4/3
f 234/4/3 231/4/3 233/4/3
f 235/4/3 229/4/3 232/4/3
f 236/4/3 229/4/3 235/4/3
f 239/4/3 238/4/3 237/4/3
f 241/4/3 239/4/3 237/4/3
f 241/4/3 240/4/3 239/4/3
f 242/4/3 240/4/3 241/4/3
f 243/4/3 241/4/3 237/4/3
f 244/4/3 241/4/3 243/4/3
f 245/4/3 240/4/3 242/4/3
f 246/4/3 240/4/3 245/4/3
f 247/4/3 240/4/3 246/4/3
f 248/4/3 240/4/3 247/4/3
f 253/4/3 250/4/3 249/4/3
f 254/4/3 250/4/3 253/4/3
f 255/4/3 252/4/3 251/4/3
f 256/4/3 252/4/3 255/4/3
f 261/4/3 258/4/3 257/4/3
f 262/4/3 258/4/3 261/4/3
f 263/4/3 260/4/3 259/4/3
f 264/4/3 260/4/3 263/4/3
f 267/4/3 266/4/3 265/4/3
f 268/4/3 266/4/3 267/4/3
f 271/4/3 270/4/3 269/4/3
f 272/4/3 270/4/3 271/4/3
f 273/4/4 274/4/4 275/4/4
f 275/4/4 274/4/4 276/4/4
f 277/4/4 278/4/4 279/4/4
f 279/4/4 278/4/4 280/4/4
f 281/4/4 282/4/4 285/4/4
f 285/4/4 282/4/4 286/4/4
f 283/4/4 284/4/4 287/4/4
f 287/4/4 284/4/4 288/4/4
f 289/4/4 290/4/4 293/4/4
f 293/4/4 290/4/4 294/4/4
f 291/4/4 292/4/4 295/4/4
f 295/4/4 292/4/4 296/4/4
f 297/4/4 298/4/4 299/4/4
f 297/4/4 299/4/4 301/4/4
f 299/4/4 300/4/4 301/4/4
f 301/4/4 300/4/4 302/4/4
f 297/4/4 301/4/4 303/4/4
f 303/4/4 301/4/4 304/4/4
f 302/4/4 300/4/4 305/4/4
f 305/4/4 300/4/4 306/4/4
f 306/4/4 300/4/4 307/4/4
f 307/4/4 300/4/4 308/4/4
f 309/4/4 310/4/4 311/4/4
f 311/4/4 310/4/4 312/4/4
f 312/4/4 313/4/4 315/4/4
f 315/4/4 313/4/4 316/4/4
f 314/4/4 315/4/4 317/4/4
f 317/4/4 315/4/4 318/4/4
f 316/4/4 313/4/4 319/4/4
f 319/4/4 313/4/4 320/4/4
f 321/4/4 322/4/4 325/4/4
f 325/4/4 322/4/4 326/4/4
f 323/4/4 324/4/4 327/4/4
f 327/4/4 324/4/4 328/4/4
f 329/4/4 330/4/4 331/4/4
f 331/4/4 330/4/4 332/4/4
f 332/4/4 330/4/4 333/4/4
f 333/4/4 330/4/4 334/4/4
f 329/4/4 331/4/4 335/4/4
f 331/5/4 332/5/4 335/5/4
f 332/4/4 333/4/4 336/4/4
f 335/5/4 332/5/4 336/5/4
f 333/5/4 334/5/4 337/5/4
f 336/4/4 333/4/4 337/4/4
f 334/4/4 330/4/4 338/4/4
f 337/5/4 334/5/4 338/5/4
f 336/4/4 337/4/4 339/4/4
f 335/4/4 336/4/4 339/4/4
f 337/4/4 338/4/4 339/4/4
f 339/4/4 338/4/4 340/4/4
f 329/4/4 335/4/4 341/4/4
f 335/4/4 339/4/4 341/4/4
f 341/4/4 339/4/4 342/4/4
f 340/4/4 338/4/4 343/4/4
f 338/4/4 330/4/4 344/4/4
f 343/4/4 338/4/4 344/4/4
f 329/4/4 341/4/4 345/4/4
f 341/5/4 342/5/4 345/5/4
f 342/4/4 339/4/4 346/4/4
f 345/5/4 342/5/4 346/5/4
f 340/4/4 343/4/4 347/4/4
f 343/5/4 344/5/4 347/5/4
f 344/4/4 330/4/4 348/4/4
f 347/5/4 344/5/4 348/5/4
f 329/4/4 345/4/4 349/4/4
f 345/4/4 346/4/4 349/4/4
f 346/4/4 339/4/4 350/4/4
f 349/4/4 346/4/4 350/4/4
f 340/4/4 347/4/4 351/4/4
f 347/4/4 348/4/4 351/4/4
f 348/4/4 330/4/4 352/4/4
f 351/4/4 348/4/4 352/4/4
f 353/4/4 354/4/4 355/4/4
f 355/4/4 354/4/4 356/4/4
f 360/4/5 358/4/5 357/4/5
f 361/4/5 358/4/5 360/4/5
f 363/4/5 360/4/5 359/4/5
f 363/4/5 362/4/5 361/4/5
f 363/4/5 361/4/5 360/4/5
f 364/4/5 362/4/5 363/4/5
f 367/4/5 366/4/5 365/4/5
f 368/4/5 366/4/5 367/4/5
f 369/4/5 366/4/5 368/4/5
f 370/4/5 366/4/5 369/4/5
f 371/4/5 369/4/5 368/4/5
f 372/4/5 369/4/5 371/4/5
f 375/4/5 374/4/5 373/4/5
f 376/4/5 374/4/5 375/4/5
f 379/4/5 378/4/5 377/4/5
f 380/4/5 378/4/5 379/4/5
f 383/4/5 382/4/5 381/4/5
f 384/4/5 382/4/5 383/4/5
f 385/4/5 382/4/5 384/4/5
f 386/4/5 382/4/5 385/4/5
f 390/4/5 388/4/5 387/4/5
f 391/4/5 390/4/5 389/4/5
f 392/4/5 388/4/5 390/4/5
f 392/4/5 390/4/5 391/4/5
f 395/4/5 394/4/5 393/4/5
f 396/4/5 394/4/5 395/4/5
f 397/4/5 394/4/5 396/4/5
f 398/4/5 394/4/5 397/4/5
f 399/4/5 394/4/5 398/4/5
f 400/4/5 394/4/5 399/4/5
f 401/4/5 395/4/5 393/4/5
f 401/5/5 396/5/5 395/5/5
f 402/4/5 397/4/5 396/4/5
f 402/5/5 396/5/5 401/5/5
f 403/5/5 400/5/5 399/5/5
f 403/4/5 399/4/5 398/4/5
f 404/4/5 394/4/5 400/4/5
f 404/5/5 400/5/5 403/5/5
f 405/4/5 401/4/5 393/4/5
f 405/4/5 402/4/5 401/4/5
f 406/4/5 397/4/5 402/4/5
f 406/4/5 402/4/5 405/4/5
f 407/4/5 403/4/5 398/4/5
f 407/4/5 404/4/5 403/4/5
f 408/4/5 394/4/5 404/4/5
f 408/4/5 404/4/5 407/4/5
f 409/3/5 406/3/5 405/3/5
f 409/3/5 407/3/5 406/3/5
f 409/3/5 408/3/5 407/3/5
f 410/3/5 408/3/5 409/3/5
f 411/3/5 408/3/5 410/3/5
f 412/3/5 408/3/5 411/3/5
f 413/4/5 410/4/5 409/4/5
f 414/4/5 410/4/5 413/4/5
f 415/4/5 412/4/5 411/4/5
f 416/4/5 412/4/5 415/4/5
f 417/4/5 413/4/5 409/4/5
f 417/5/5 414/5/5 413/5/5
f 418/4/5 410/4/5 414/4/5
f 418/5/5 414/5/5 417/5/5
f 419/4/5 410/4/5 418/4/5
f 420/4/5 415/4/5 411/4/5
f 421/5/5 416/5/5 415/5/5
f 421/4/5 415/4/5 420/4/5
f 422/4/5 412/4/5 416/4/5
f 422/5/5 416/5/5 421/5/5
f 423/4/5 417/4/5 409/4/5
f 423/4/5 421/4/5 420/4/5
f 423/4/5 422/4/5 421/4/5
f 423/4/5 420/4/5 419/4/5
f 423/4/5 418/4/5 417/4/5
f 423/4/5 419/4/5 418/4/5
f 424/4/5 412/4/5 422/4/5
f 424/4/5 422/4/5 423/4/5
f 427/4/5 426/4/5 425/4/5
f 428/4/5 426/4/5 427/4/5
f 429/4/5 426/4/5 428/4/5
f 433/4/5 431/4/5 430/4/5
f 433/4/5 432/4/5 431/4/5
f 434/4/5 432/4/5 433/4/5
f 437/4/5 436/4/5 435/4/5
f 438/4/5 436/4/5 437/4/5
f 441/4/5 440/4/5 439/4/5
f 442/4/5 440/4/5 441/4/5
f 445/4/5 444/4/5 443/4/5
f 446/4/5 444/4/5 445/4/5
f 449/4/5 448/4/5 447/4/5
f 450/4/5 448/4/5 449/4/5
f 453/4/5 452/4/5 451/4/5
f 454/4/5 452/4/5 453/4/5
f 455/3/5 454/3/5 453/3/5
f 456/3/5 454/3/5 455/3/5
f 457/4/5 456/4/5 455/4/5
f 458/4/5 456/4/5 457/4/5
f 459/4/6 460/4/6 462/4/6
f 462/4/6 460/4/6 463/4/6
f 461/4/6 462/4/6 465/4/6
f 465/4/6 462/4/6 466/4/6
f 463/4/6 464/4/6 467/4/6
f 467/4/6 464/4/6 468/4/6
f 469/4/6 470/4/6 473/4/6
f 473/4/6 470/4/6 474/4/6
f 471/4/6 472/4/6 475/4/6
f 475/4/6 472/4/6 476/4/6
f 474/4/6 475/4/6 477/4/6
f 477/4/6 475/4/6 478/4/6
f 479/4/6 480/4/6 481/4/6
f 481/4/6 480/4/6 482/4/6
f 481/3/6 482/3/6 483/3/6
f 483/3/6 482/3/6 484/3/6
f 483/4/6 484/4/6 485/4/6
f 485/4/6 484/4/6 486/4/6
f 487/4/6 488/4/6 489/4/6
f 489/4/6 488/4/6 490/4/6
f 491/4/6 492/4/6 493/4/6
f 493/4/6 492/4/6 494/4/6
f 495/4/6 496/4/6 497/4/6
f 497/4/6 496/4/6 498/4/6
f 499/4/6 500/4/6 501/4/6
f 501/4/6 500/4/6 502/4/6
f 503/4/6 504/4/6 505/4/6
f 505/4/6 504/4/6 506/4/6
f 506/4/6 504/4/6 507/4/6
f 508/4/6 509/4/6 511/4/6
f 509/4/6 510/4/6 511/4/6
f 511/4/6 510/4/6 512/4/6
f 513/4/6 514/4/6 515/4/6
f 515/4/6 514/4/6 516/4/6
f 516/4/6 514/4/6 517/4/6
f 517/4/6 514/4/6 518/4/6
f 513/4/6 515/4/6 519/4/6
f 515/5/6 516/5/6 519/5/6
f 516/4/6 517/4/6 520/4/6
f 519/5/6 516/5/6 520/5/6
f 517/5/6 518/5/6 521/5/6
f 520/4/6 517/4/6 521/4/6
f 518/4/6 514/4/6 522/4/6
f 521/5/6 518/5/6 522/5/6
f 520/4/6 521/4/6 523/4/6
f 519/4/6 520/4/6 523/4/6
f 521/4/6 522/4/6 523/4/6
f 513/4/6 519/4/6 523/4/6
f 522/4/6 514/4/6 524/4/6
f 523/4/6 522/4/6 524/4/6
f 523/3/6 524/3/6 525/3/6
f 525/3/6 524/3/6 526/3/6
f 525/4/6 526/4/6 527/4/6
f 527/4/6 526/4/6 528/4/6
f 528/4/6 526/4/6 529/4/6
f 529/4/6 526/4/6 530/4/6
f 525/4/6 527/4/6 531/4/6
f 527/5/6 528/5/6 531/5/6
f 528/4/6 529/4/6 532/4/6
f 531/5/6 528/5/6 532/5/6
f 529/5/6 530/5/6 533/5/6
f 532/4/6 529/4/6 533/4/6
f 530/4/6 526/4/6 534/4/6
f 533/5/6 530/5/6 534/5/6
f 532/4/6 533/4/6 535/4/6
f 531/4/6 532/4/6 535/4/6
f 533/4/6 534/4/6 535/4/6
f 525/4/6 531/4/6 535/4/6
f 534/4/6 526/4/6 536/4/6
f 535/4/6 534/4/6 536/4/6
