# MagicaVoxel @ Ephtracy

# group
o 

# material
mtllib lil man.mtl
usemtl palette

# normals
vn -1 0 0
vn 1 0 0
vn 0 0 1
vn 0 0 -1
vn 0 -1 0
vn 0 1 0

# texcoords
vt 0.119141 0.5
vt 0.208984 0.5
vt 0.306641 0.5
vt 0.396484 0.5
vt 0.537109 0.5
vt 0.548828 0.5
vt 0.689453 0.5
vt 0.958984 0.5

# verts
v -1 0.0999999 -0.1
v -1 0.0999999 -0.3
v -1 0.2 -0.1
v -1 0.2 -0.3
v -0.9 0 -0.1
v -0.9 0 -0.3
v -0.9 0.0999999 -0.1
v -0.9 0.0999999 -0.3
v -0.4 0.5 -0.1
v -0.4 0.5 -0.2
v -0.4 0.7 -0.1
v -0.4 0.7 -0.2
v -0.3 -1.2 0.0999999
v -0.3 -1.2 -0.3
v -0.3 -1.1 0.0999999
v -0.3 -1.1 -0.1
v -0.3 -1.1 -0.3
v -0.3 -0.5 -7.45058e-08
v -0.3 -0.5 -0.1
v -0.3 -0.5 -0.3
v -0.3 -0.5 -0.4
v -0.3 -0.3 -7.45058e-08
v -0.3 -0.3 -0.4
v -0.3 0 -0.1
v -0.3 0 -0.3
v -0.3 0.2 -7.45058e-08
v -0.3 0.2 -0.1
v -0.3 0.2 -0.3
v -0.3 0.2 -0.4
v -0.3 0.3 -7.45058e-08
v -0.3 0.3 -0.5
v -0.3 0.5 -0.1
v -0.3 0.5 -0.2
v -0.3 0.6 -7.45058e-08
v -0.3 0.6 -0.1
v -0.3 0.7 -7.45058e-08
v -0.3 0.7 -0.1
v -0.3 0.7 -0.2
v -0.3 0.8 -7.45058e-08
v -0.3 0.8 -0.5
v -0.3 0.9 -7.45058e-08
v -0.3 0.9 -0.5
v -0.0999999 0.2 -0.1
v -0.0999999 0.2 -0.3
v -0.0999999 0.3 -0.1
v -0.0999999 0.3 -0.3
v 0.1 -1.2 0.0999999
v 0.1 -1.2 -0.3
v 0.1 -1.1 0.0999999
v 0.1 -1.1 -0.1
v 0.1 -1.1 -0.3
v 0.1 -0.5 -0.1
v 0.1 -0.5 -0.3
v -0.0999999 -1.2 0.0999999
v -0.0999999 -1.2 -0.3
v -0.0999999 -1.1 0.0999999
v -0.0999999 -1.1 -0.1
v -0.0999999 -1.1 -0.3
v -0.0999999 -0.5 -0.1
v -0.0999999 -0.5 -0.3
v 0.1 0.2 -0.1
v 0.1 0.2 -0.3
v 0.1 0.3 -0.1
v 0.1 0.3 -0.3
v 0.3 -1.2 0.0999999
v 0.3 -1.2 -0.3
v 0.3 -1.1 0.0999999
v 0.3 -1.1 -0.1
v 0.3 -1.1 -0.3
v 0.3 -0.5 -7.45058e-08
v 0.3 -0.5 -0.1
v 0.3 -0.5 -0.3
v 0.3 -0.5 -0.4
v 0.3 -0.3 -7.45058e-08
v 0.3 -0.3 -0.4
v 0.3 0 -0.1
v 0.3 0 -0.3
v 0.3 0.2 -7.45058e-08
v 0.3 0.2 -0.1
v 0.3 0.2 -0.3
v 0.3 0.2 -0.4
v 0.3 0.3 -7.45058e-08
v 0.3 0.3 -0.5
v 0.3 0.5 -0.1
v 0.3 0.5 -0.2
v 0.3 0.6 -7.45058e-08
v 0.3 0.6 -0.1
v 0.3 0.7 -7.45058e-08
v 0.3 0.7 -0.1
v 0.3 0.7 -0.2
v 0.3 0.8 -7.45058e-08
v 0.3 0.8 -0.5
v 0.3 0.9 -7.45058e-08
v 0.3 0.9 -0.5
v 0.4 0.5 -0.1
v 0.4 0.5 -0.2
v 0.4 0.7 -0.1
v 0.4 0.7 -0.2
v 0.9 0 -0.1
v 0.9 0 -0.3
v 0.9 0.0999999 -0.1
v 0.9 0.0999999 -0.3
v 1 0.0999999 -0.1
v 1 0.0999999 -0.3
v 1 0.2 -0.1
v 1 0.2 -0.3
v -0.3 -1.2 0.0999999
v -0.3 -1.1 0.0999999
v -0.0999999 -1.2 0.0999999
v -0.0999999 -1.1 0.0999999
v 0.1 -1.2 0.0999999
v 0.1 -1.1 0.0999999
v 0.3 -1.2 0.0999999
v 0.3 -1.1 0.0999999
v -0.3 -0.5 -7.45058e-08
v -0.3 -0.3 -7.45058e-08
v -0.3 0.2 -7.45058e-08
v -0.3 0.3 -7.45058e-08
v -0.3 0.6 -7.45058e-08
v -0.3 0.7 -7.45058e-08
v -0.3 0.8 -7.45058e-08
v -0.3 0.9 -7.45058e-08
v -0.2 0.6 -7.45058e-08
v -0.2 0.7 -7.45058e-08
v -0.0999999 0.0999999 -7.45058e-08
v -0.0999999 0.2 -7.45058e-08
v -0.0999999 0.4 -7.45058e-08
v -0.0999999 0.5 -7.45058e-08
v -0.0999999 0.6 -7.45058e-08
v -0.0999999 0.7 -7.45058e-08
v 0.1 0.0999999 -7.45058e-08
v 0.1 0.2 -7.45058e-08
v 0.1 0.4 -7.45058e-08
v 0.1 0.5 -7.45058e-08
v 0.1 0.6 -7.45058e-08
v 0.1 0.7 -7.45058e-08
v 0.2 0.6 -7.45058e-08
v 0.2 0.7 -7.45058e-08
v 0.3 -0.5 -7.45058e-08
v 0.3 -0.3 -7.45058e-08
v 0.3 0.2 -7.45058e-08
v 0.3 0.3 -7.45058e-08
v 0.3 0.6 -7.45058e-08
v 0.3 0.7 -7.45058e-08
v 0.3 0.8 -7.45058e-08
v 0.3 0.9 -7.45058e-08
v -1 0.0999999 -0.1
v -1 0.2 -0.1
v -0.9 0 -0.1
v -0.9 0.0999999 -0.1
v -0.8 0 -0.1
v -0.8 0.2 -0.1
v -0.4 0.5 -0.1
v -0.4 0.7 -0.1
v -0.3 -1.1 -0.1
v -0.3 -0.5 -0.1
v -0.3 0 -0.1
v -0.3 0.2 -0.1
v -0.3 0.5 -0.1
v -0.3 0.6 -0.1
v -0.3 0.7 -0.1
v -0.0999999 -1.1 -0.1
v -0.0999999 -0.5 -0.1
v -0.0999999 0.2 -0.1
v -0.0999999 0.3 -0.1
v 0.1 -1.1 -0.1
v 0.1 -0.5 -0.1
v 0.1 0.2 -0.1
v 0.1 0.3 -0.1
v 0.3 -1.1 -0.1
v 0.3 -0.5 -0.1
v 0.3 0 -0.1
v 0.3 0.2 -0.1
v 0.3 0.5 -0.1
v 0.3 0.6 -0.1
v 0.3 0.7 -0.1
v 0.4 0.5 -0.1
v 0.4 0.7 -0.1
v 0.8 0 -0.1
v 0.8 0.2 -0.1
v 0.9 0 -0.1
v 0.9 0.0999999 -0.1
v 1 0.0999999 -0.1
v 1 0.2 -0.1
v -0.4 0.5 -0.2
v -0.4 0.7 -0.2
v -0.3 0.5 -0.2
v -0.3 0.7 -0.2
v 0.3 0.5 -0.2
v 0.3 0.7 -0.2
v 0.4 0.5 -0.2
v 0.4 0.7 -0.2
v -1 0.0999999 -0.3
v -1 0.2 -0.3
v -0.9 0 -0.3
v -0.9 0.0999999 -0.3
v -0.8 0 -0.3
v -0.8 0.2 -0.3
v -0.3 -1.2 -0.3
v -0.3 -1.1 -0.3
v -0.3 -0.5 -0.3
v -0.3 0 -0.3
v -0.3 0.2 -0.3
v -0.0999999 -1.2 -0.3
v -0.0999999 -1.1 -0.3
v -0.0999999 -0.5 -0.3
v -0.0999999 0.2 -0.3
v -0.0999999 0.3 -0.3
v 0.1 -1.2 -0.3
v 0.1 -1.1 -0.3
v 0.1 -0.5 -0.3
v 0.1 0.2 -0.3
v 0.1 0.3 -0.3
v 0.3 -1.2 -0.3
v 0.3 -1.1 -0.3
v 0.3 -0.5 -0.3
v 0.3 0 -0.3
v 0.3 0.2 -0.3
v 0.8 0 -0.3
v 0.8 0.2 -0.3
v 0.9 0 -0.3
v 0.9 0.0999999 -0.3
v 1 0.0999999 -0.3
v 1 0.2 -0.3
v -0.3 -0.5 -0.4
v -0.3 -0.3 -0.4
v -0.3 0.2 -0.4
v 0.3 -0.5 -0.4
v 0.3 -0.3 -0.4
v 0.3 0.2 -0.4
v -0.3 0.3 -0.5
v -0.3 0.8 -0.5
v -0.3 0.9 -0.5
v 0.3 0.3 -0.5
v 0.3 0.8 -0.5
v 0.3 0.9 -0.5
v -0.3 -1.2 0.0999999
v -0.0999999 -1.2 0.0999999
v 0.1 -1.2 0.0999999
v 0.3 -1.2 0.0999999
v -0.3 -1.2 -0.3
v -0.0999999 -1.2 -0.3
v 0.1 -1.2 -0.3
v 0.3 -1.2 -0.3
v -0.3 -0.5 -7.45058e-08
v 0.3 -0.5 -7.45058e-08
v -0.3 -0.5 -0.1
v -0.0999999 -0.5 -0.1
v 0.1 -0.5 -0.1
v 0.3 -0.5 -0.1
v -0.3 -0.5 -0.3
v -0.0999999 -0.5 -0.3
v 0.1 -0.5 -0.3
v 0.3 -0.5 -0.3
v -0.3 -0.5 -0.4
v 0.3 -0.5 -0.4
v -0.9 0 -0.1
v -0.8 0 -0.1
v -0.3 0 -0.1
v 0.3 0 -0.1
v 0.8 0 -0.1
v 0.9 0 -0.1
v -0.9 0 -0.3
v -0.8 0 -0.3
v -0.3 0 -0.3
v 0.3 0 -0.3
v 0.8 0 -0.3
v 0.9 0 -0.3
v -1 0.0999999 -0.1
v -0.9 0.0999999 -0.1
v 0.9 0.0999999 -0.1
v 1 0.0999999 -0.1
v -1 0.0999999 -0.3
v -0.9 0.0999999 -0.3
v 0.9 0.0999999 -0.3
v 1 0.0999999 -0.3
v -0.3 0.3 -7.45058e-08
v 0.3 0.3 -7.45058e-08
v -0.0999999 0.3 -0.1
v 0.1 0.3 -0.1
v -0.0999999 0.3 -0.3
v 0.1 0.3 -0.3
v -0.3 0.3 -0.5
v 0.3 0.3 -0.5
v -0.4 0.5 -0.1
v -0.3 0.5 -0.1
v 0.3 0.5 -0.1
v 0.4 0.5 -0.1
v -0.4 0.5 -0.2
v -0.3 0.5 -0.2
v 0.3 0.5 -0.2
v 0.4 0.5 -0.2
v -0.3 -1.1 0.0999999
v -0.0999999 -1.1 0.0999999
v 0.1 -1.1 0.0999999
v 0.3 -1.1 0.0999999
v -0.3 -1.1 -0.1
v -0.0999999 -1.1 -0.1
v 0.1 -1.1 -0.1
v 0.3 -1.1 -0.1
v -0.3 0.2 -7.45058e-08
v -0.0999999 0.2 -7.45058e-08
v 0.1 0.2 -7.45058e-08
v 0.3 0.2 -7.45058e-08
v -1 0.2 -0.1
v -0.8 0.2 -0.1
v -0.3 0.2 -0.1
v -0.0999999 0.2 -0.1
v 0.1 0.2 -0.1
v 0.3 0.2 -0.1
v 0.8 0.2 -0.1
v 1 0.2 -0.1
v -1 0.2 -0.3
v -0.8 0.2 -0.3
v -0.3 0.2 -0.3
v -0.0999999 0.2 -0.3
v 0.1 0.2 -0.3
v 0.3 0.2 -0.3
v 0.8 0.2 -0.3
v 1 0.2 -0.3
v -0.3 0.2 -0.4
v 0.3 0.2 -0.4
v -0.4 0.7 -0.1
v -0.3 0.7 -0.1
v 0.3 0.7 -0.1
v 0.4 0.7 -0.1
v -0.4 0.7 -0.2
v -0.3 0.7 -0.2
v 0.3 0.7 -0.2
v 0.4 0.7 -0.2
v -0.3 0.9 -7.45058e-08
v 0.3 0.9 -7.45058e-08
v -0.3 0.9 -0.5
v 0.3 0.9 -0.5

# faces
f 3/2/1 2/2/1 1/2/1
f 4/2/1 2/2/1 3/2/1
f 7/2/1 6/2/1 5/2/1
f 8/2/1 6/2/1 7/2/1
f 11/2/1 10/2/1 9/2/1
f 12/2/1 10/2/1 11/2/1
f 15/5/1 14/5/1 13/5/1
f 16/5/1 14/5/1 15/5/1
f 17/5/1 14/5/1 16/5/1
f 19/7/1 17/7/1 16/7/1
f 20/7/1 17/7/1 19/7/1
f 22/7/1 20/7/1 19/7/1
f 22/7/1 21/7/1 20/7/1
f 22/7/1 19/7/1 18/7/1
f 23/7/1 21/7/1 22/7/1
f 24/3/1 23/3/1 22/3/1
f 25/3/1 23/3/1 24/3/1
f 26/3/1 24/3/1 22/3/1
f 27/3/1 24/3/1 26/3/1
f 28/3/1 23/3/1 25/3/1
f 29/3/1 23/3/1 28/3/1
f 32/2/1 31/2/1 30/2/1
f 33/2/1 31/2/1 32/2/1
f 34/2/1 32/2/1 30/2/1
f 35/2/1 32/2/1 34/2/1
f 36/8/1 35/8/1 34/8/1
f 37/8/1 35/8/1 36/8/1
f 38/2/1 31/2/1 33/2/1
f 39/2/1 37/2/1 36/2/1
f 39/2/1 38/2/1 37/2/1
f 40/2/1 31/2/1 38/2/1
f 40/2/1 38/2/1 39/2/1
f 41/4/1 40/4/1 39/4/1
f 42/4/1 40/4/1 41/4/1
f 45/2/1 44/2/1 43/2/1
f 46/2/1 44/2/1 45/2/1
f 49/5/1 48/5/1 47/5/1
f 50/5/1 48/5/1 49/5/1
f 51/5/1 48/5/1 50/5/1
f 52/7/1 51/7/1 50/7/1
f 53/7/1 51/7/1 52/7/1
f 54/5/2 55/5/2 56/5/2
f 56/5/2 55/5/2 57/5/2
f 57/5/2 55/5/2 58/5/2
f 57/7/2 58/7/2 59/7/2
f 59/7/2 58/7/2 60/7/2
f 61/2/2 62/2/2 63/2/2
f 63/2/2 62/2/2 64/2/2
f 65/5/2 66/5/2 67/5/2
f 67/5/2 66/5/2 68/5/2
f 68/5/2 66/5/2 69/5/2
f 68/7/2 69/7/2 71/7/2
f 71/7/2 69/7/2 72/7/2
f 71/7/2 72/7/2 74/7/2
f 72/7/2 73/7/2 74/7/2
f 70/7/2 71/7/2 74/7/2
f 74/7/2 73/7/2 75/7/2
f 74/3/2 75/3/2 76/3/2
f 76/3/2 75/3/2 77/3/2
f 74/3/2 76/3/2 78/3/2
f 78/3/2 76/3/2 79/3/2
f 77/3/2 75/3/2 80/3/2
f 80/3/2 75/3/2 81/3/2
f 82/2/2 83/2/2 84/2/2
f 84/2/2 83/2/2 85/2/2
f 82/2/2 84/2/2 86/2/2
f 86/2/2 84/2/2 87/2/2
f 86/8/2 87/8/2 88/8/2
f 88/8/2 87/8/2 89/8/2
f 85/2/2 83/2/2 90/2/2
f 88/2/2 89/2/2 91/2/2
f 89/2/2 90/2/2 91/2/2
f 90/2/2 83/2/2 92/2/2
f 91/2/2 90/2/2 92/2/2
f 91/4/2 92/4/2 93/4/2
f 93/4/2 92/4/2 94/4/2
f 95/2/2 96/2/2 97/2/2
f 97/2/2 96/2/2 98/2/2
f 99/2/2 100/2/2 101/2/2
f 101/2/2 100/2/2 102/2/2
f 103/2/2 104/2/2 105/2/2
f 105/2/2 104/2/2 106/2/2
f 109/5/3 108/5/3 107/5/3
f 110/5/3 108/5/3 109/5/3
f 113/5/3 112/5/3 111/5/3
f 114/5/3 112/5/3 113/5/3
f 123/2/3 119/2/3 118/2/3
f 123/8/3 120/8/3 119/8/3
f 124/2/3 121/2/3 120/2/3
f 124/8/3 120/8/3 123/8/3
f 125/3/3 117/3/3 116/3/3
f 126/3/3 117/3/3 125/3/3
f 127/2/3 123/2/3 118/2/3
f 128/2/3 123/2/3 127/2/3
f 129/6/3 124/6/3 123/6/3
f 129/2/3 123/2/3 128/2/3
f 130/2/3 121/2/3 124/2/3
f 130/6/3 124/6/3 129/6/3
f 131/2/3 126/2/3 125/2/3
f 131/3/3 125/3/3 116/3/3
f 132/2/3 126/2/3 131/2/3
f 133/1/3 128/1/3 127/1/3
f 133/2/3 127/2/3 118/2/3
f 134/2/3 129/2/3 128/2/3
f 134/1/3 128/1/3 133/1/3
f 134/2/3 130/2/3 129/2/3
f 135/2/3 130/2/3 134/2/3
f 136/2/3 121/2/3 130/2/3
f 136/2/3 130/2/3 135/2/3
f 137/2/3 135/2/3 134/2/3
f 137/2/3 134/2/3 133/2/3
f 137/6/3 136/6/3 135/6/3
f 138/2/3 121/2/3 136/2/3
f 138/6/3 136/6/3 137/6/3
f 139/7/3 116/7/3 115/7/3
f 140/3/3 132/3/3 131/3/3
f 140/7/3 116/7/3 139/7/3
f 140/3/3 131/3/3 116/3/3
f 141/3/3 132/3/3 140/3/3
f 142/2/3 133/2/3 118/2/3
f 142/2/3 137/2/3 133/2/3
f 143/8/3 138/8/3 137/8/3
f 143/2/3 137/2/3 142/2/3
f 144/2/3 121/2/3 138/2/3
f 144/8/3 138/8/3 143/8/3
f 145/4/3 122/4/3 121/4/3
f 145/2/3 121/2/3 144/2/3
f 146/4/3 122/4/3 145/4/3
f 150/2/3 148/2/3 147/2/3
f 151/2/3 150/2/3 149/2/3
f 152/2/3 148/2/3 150/2/3
f 152/2/3 150/2/3 151/2/3
f 157/3/3 152/3/3 151/3/3
f 158/3/3 152/3/3 157/3/3
f 159/2/3 154/2/3 153/2/3
f 160/2/3 154/2/3 159/2/3
f 161/2/3 154/2/3 160/2/3
f 162/7/3 156/7/3 155/7/3
f 163/7/3 156/7/3 162/7/3
f 168/2/3 165/2/3 164/2/3
f 169/2/3 165/2/3 168/2/3
f 170/7/3 167/7/3 166/7/3
f 171/7/3 167/7/3 170/7/3
f 177/2/3 176/2/3 175/2/3
f 177/2/3 175/2/3 174/2/3
f 178/2/3 176/2/3 177/2/3
f 179/3/3 173/3/3 172/3/3
f 180/3/3 173/3/3 179/3/3
f 181/2/3 180/2/3 179/2/3
f 182/2/3 180/2/3 181/2/3
f 183/2/3 180/2/3 182/2/3
f 184/2/3 180/2/3 183/2/3
f 185/2/4 186/2/4 187/2/4
f 187/2/4 186/2/4 188/2/4
f 189/2/4 190/2/4 191/2/4
f 191/2/4 190/2/4 192/2/4
f 193/2/4 194/2/4 196/2/4
f 195/2/4 196/2/4 197/2/4
f 196/2/4 194/2/4 198/2/4
f 197/2/4 196/2/4 198/2/4
f 197/3/4 198/3/4 202/3/4
f 202/3/4 198/3/4 203/3/4
f 199/5/4 200/5/4 204/5/4
f 200/7/4 201/7/4 205/7/4
f 204/5/4 200/5/4 205/5/4
f 205/7/4 201/7/4 206/7/4
f 207/2/4 208/2/4 212/2/4
f 212/2/4 208/2/4 213/2/4
f 209/5/4 210/5/4 214/5/4
f 210/7/4 211/7/4 215/7/4
f 214/5/4 210/5/4 215/5/4
f 215/7/4 211/7/4 216/7/4
f 217/3/4 218/3/4 219/3/4
f 219/3/4 218/3/4 220/3/4
f 219/2/4 220/2/4 221/2/4
f 221/2/4 220/2/4 222/2/4
f 222/2/4 220/2/4 223/2/4
f 223/2/4 220/2/4 224/2/4
f 225/7/4 226/7/4 228/7/4
f 226/3/4 227/3/4 229/3/4
f 228/7/4 226/7/4 229/7/4
f 229/3/4 227/3/4 230/3/4
f 231/2/4 232/2/4 234/2/4
f 232/4/4 233/4/4 235/4/4
f 234/2/4 232/2/4 235/2/4
f 235/4/4 233/4/4 236/4/4
f 241/5/5 238/5/5 237/5/5
f 242/5/5 238/5/5 241/5/5
f 243/5/5 240/5/5 239/5/5
f 244/5/5 240/5/5 243/5/5
f 247/7/5 246/7/5 245/7/5
f 248/7/5 246/7/5 247/7/5
f 249/7/5 246/7/5 248/7/5
f 250/7/5 246/7/5 249/7/5
f 252/7/5 249/7/5 248/7/5
f 253/7/5 249/7/5 252/7/5
f 255/7/5 252/7/5 251/7/5
f 255/7/5 254/7/5 253/7/5
f 255/7/5 253/7/5 252/7/5
f 256/7/5 254/7/5 255/7/5
f 263/2/5 258/2/5 257/2/5
f 264/3/5 259/3/5 258/3/5
f 264/2/5 258/2/5 263/2/5
f 265/3/5 259/3/5 264/3/5
f 266/3/5 261/3/5 260/3/5
f 267/2/5 262/2/5 261/2/5
f 267/3/5 261/3/5 266/3/5
f 268/2/5 262/2/5 267/2/5
f 273/2/5 270/2/5 269/2/5
f 274/2/5 270/2/5 273/2/5
f 275/2/5 272/2/5 271/2/5
f 276/2/5 272/2/5 275/2/5
f 279/2/5 278/2/5 277/2/5
f 280/2/5 278/2/5 279/2/5
f 281/2/5 279/2/5 277/2/5
f 282/2/5 278/2/5 280/2/5
f 283/2/5 281/2/5 277/2/5
f 283/2/5 282/2/5 281/2/5
f 284/2/5 278/2/5 282/2/5
f 284/2/5 282/2/5 283/2/5
f 289/2/5 286/2/5 285/2/5
f 290/2/5 286/2/5 289/2/5
f 291/2/5 288/2/5 287/2/5
f 292/2/5 288/2/5 291/2/5
f 293/5/6 294/5/6 297/5/6
f 297/5/6 294/5/6 298/5/6
f 295/5/6 296/5/6 299/5/6
f 299/5/6 296/5/6 300/5/6
f 301/3/6 302/3/6 307/3/6
f 302/2/6 303/2/6 308/2/6
f 307/3/6 302/3/6 308/3/6
f 303/3/6 304/3/6 309/3/6
f 308/2/6 303/2/6 309/2/6
f 309/3/6 304/3/6 310/3/6
f 305/2/6 306/2/6 313/2/6
f 306/3/6 307/3/6 314/3/6
f 313/2/6 306/2/6 314/2/6
f 307/3/6 308/3/6 314/3/6
f 314/3/6 308/3/6 315/3/6
f 315/3/6 308/3/6 316/3/6
f 309/3/6 310/3/6 317/3/6
f 310/3/6 311/3/6 317/3/6
f 317/3/6 311/3/6 318/3/6
f 311/2/6 312/2/6 319/2/6
f 318/3/6 311/3/6 319/3/6
f 319/2/6 312/2/6 320/2/6
f 317/3/6 318/3/6 321/3/6
f 315/3/6 316/3/6 321/3/6
f 316/3/6 317/3/6 321/3/6
f 321/3/6 318/3/6 322/3/6
f 323/2/6 324/2/6 327/2/6
f 327/2/6 324/2/6 328/2/6
f 325/2/6 326/2/6 329/2/6
f 329/2/6 326/2/6 330/2/6
f 331/4/6 332/4/6 333/4/6
f 333/4/6 332/4/6 334/4/6
