# MagicaVoxel @ Ephtracy

# group
o 

# material
mtllib lil snow.mtl
usemtl palette

# normals
vn -1 0 0
vn 1 0 0
vn 0 0 1
vn 0 0 -1
vn 0 -1 0
vn 0 1 0

# texcoords
vt 0.427734 0.5
vt 0.447266 0.5
vt 0.705078 0.5
vt 0.958984 0.5

# verts
v -0.4 0 0.4
v -0.4 0 -0.5
v -0.4 0.1 0.3
v -0.4 0.1 0.2
v -0.4 0.1 0
v -0.4 0.1 -0.1
v -0.4 0.1 -0.2
v -0.4 0.1 -0.3
v -0.4 0.2 0.3
v -0.4 0.2 0.2
v -0.4 0.2 0.1
v -0.4 0.2 0
v -0.4 0.2 -0.1
v -0.4 0.2 -0.2
v -0.4 0.2 -0.3
v -0.4 0.3 0.2
v -0.4 0.3 0.1
v -0.4 0.4 0
v -0.4 0.4 -0.1
v -0.4 0.4 -0.4
v -0.4 0.4 -0.5
v -0.4 0.5 0.3
v -0.4 0.5 0.2
v -0.4 0.5 0
v -0.4 0.5 -0.1
v -0.4 0.5 -0.4
v -0.4 0.5 -0.5
v -0.4 0.6 0.3
v -0.4 0.6 0.2
v -0.4 0.6 0.1
v -0.4 0.6 -0.3
v -0.4 0.6 -0.4
v -0.4 0.7 0.2
v -0.4 0.7 0.1
v -0.4 0.7 0
v -0.4 0.7 -0.1
v -0.4 0.7 -0.3
v -0.4 0.7 -0.4
v -0.4 0.8 0
v -0.4 0.8 -0.1
v -0.4 0.9 0.4
v -0.4 0.9 -0.5
v 0.5 0 0.4
v 0.5 0 -0.5
v 0.5 0.1 0.3
v 0.5 0.1 0.2
v 0.5 0.1 -0.2
v 0.5 0.1 -0.3
v 0.5 0.2 0.3
v 0.5 0.2 0.2
v 0.5 0.2 0.1
v 0.5 0.2 0
v 0.5 0.2 -0.2
v 0.5 0.2 -0.3
v 0.5 0.2 -0.4
v 0.5 0.3 0.1
v 0.5 0.3 0
v 0.5 0.3 -0.2
v 0.5 0.3 -0.3
v 0.5 0.3 -0.4
v 0.5 0.4 0
v 0.5 0.4 -0.1
v 0.5 0.4 -0.2
v 0.5 0.4 -0.3
v 0.5 0.5 0.2
v 0.5 0.5 0.1
v 0.5 0.5 0
v 0.5 0.5 -0.1
v 0.5 0.6 0.2
v 0.5 0.6 0.1
v 0.5 0.6 -0.2
v 0.5 0.6 -0.3
v 0.5 0.7 -0.2
v 0.5 0.7 -0.3
v 0.5 0.8 0.2
v 0.5 0.8 0.1
v 0.5 0.9 0.4
v 0.5 0.9 0.2
v 0.5 0.9 0.1
v 0.5 0.9 -0.5
v -0.4 0 0.4
v -0.4 0.9 0.4
v -0.3 0.2 0.4
v -0.3 0.3 0.4
v -0.3 0.5 0.4
v -0.3 0.6 0.4
v -0.3 0.7 0.4
v -0.3 0.8 0.4
v -0.2 0.2 0.4
v -0.2 0.3 0.4
v -0.2 0.5 0.4
v -0.2 0.6 0.4
v -0.2 0.7 0.4
v -0.2 0.8 0.4
v -0.1 0.4 0.4
v -0.1 0.5 0.4
v -0.1 0.7 0.4
v -0.1 0.8 0.4
v 0 0.1 0.4
v 0 0.2 0.4
v 0 0.3 0.4
v 0 0.4 0.4
v 0 0.5 0.4
v 0 0.7 0.4
v 0 0.8 0.4
v 0.1 0.1 0.4
v 0.1 0.2 0.4
v 0.1 0.3 0.4
v 0.1 0.4 0.4
v 0.1 0.6 0.4
v 0.1 0.7 0.4
v 0.2 0.6 0.4
v 0.2 0.7 0.4
v 0.3 0 0.4
v 0.3 0.1 0.4
v 0.3 0.2 0.4
v 0.3 0.3 0.4
v 0.3 0.6 0.4
v 0.3 0.7 0.4
v 0.4 0 0.4
v 0.4 0.1 0.4
v 0.4 0.2 0.4
v 0.4 0.3 0.4
v 0.4 0.6 0.4
v 0.4 0.7 0.4
v 0.5 0 0.4
v 0.5 0.9 0.4
v -0.4 0 -0.5
v -0.4 0.4 -0.5
v -0.4 0.5 -0.5
v -0.4 0.9 -0.5
v -0.3 0.4 -0.5
v -0.3 0.5 -0.5
v -0.3 0.7 -0.5
v -0.3 0.8 -0.5
v -0.2 0.1 -0.5
v -0.2 0.2 -0.5
v -0.2 0.7 -0.5
v -0.2 0.8 -0.5
v -0.1 0.1 -0.5
v -0.1 0.2 -0.5
v -0.1 0.3 -0.5
v -0.1 0.4 -0.5
v -0.1 0.7 -0.5
v -0.1 0.8 -0.5
v 0 0.1 -0.5
v 0 0.2 -0.5
v 0 0.3 -0.5
v 0 0.4 -0.5
v 0 0.7 -0.5
v 0 0.8 -0.5
v 0.1 0.1 -0.5
v 0.1 0.2 -0.5
v 0.1 0.5 -0.5
v 0.1 0.6 -0.5
v 0.1 0.8 -0.5
v 0.1 0.9 -0.5
v 0.2 0.1 -0.5
v 0.2 0.2 -0.5
v 0.2 0.3 -0.5
v 0.2 0.4 -0.5
v 0.2 0.5 -0.5
v 0.2 0.6 -0.5
v 0.2 0.8 -0.5
v 0.2 0.9 -0.5
v 0.3 0 -0.5
v 0.3 0.1 -0.5
v 0.3 0.2 -0.5
v 0.3 0.3 -0.5
v 0.3 0.4 -0.5
v 0.3 0.6 -0.5
v 0.3 0.7 -0.5
v 0.4 0 -0.5
v 0.4 0.1 -0.5
v 0.4 0.6 -0.5
v 0.4 0.7 -0.5
v 0.5 0 -0.5
v 0.5 0.9 -0.5
v -0.4 0 0.4
v 0.3 0 0.4
v 0.4 0 0.4
v 0.5 0 0.4
v 0 0 0.3
v 0.1 0 0.3
v 0.3 0 0.3
v 0.4 0 0.3
v -0.3 0 0.2
v -0.2 0 0.2
v 0 0 0.2
v 0.1 0 0.2
v -0.3 0 0.1
v -0.2 0 0.1
v 0 0 0.1
v 0.1 0 0.1
v 0.2 0 0.1
v 0.3 0 0.1
v 0 0 0
v 0.1 0 0
v 0.2 0 0
v 0.3 0 0
v 0 0 -0.1
v 0.1 0 -0.1
v 0.2 0 -0.1
v 0.3 0 -0.1
v -0.2 0 -0.2
v -0.1 0 -0.2
v 0 0 -0.2
v 0.1 0 -0.2
v 0.2 0 -0.2
v 0.3 0 -0.2
v -0.2 0 -0.3
v -0.1 0 -0.3
v 0.3 0 -0.4
v 0.4 0 -0.4
v -0.4 0 -0.5
v 0.3 0 -0.5
v 0.4 0 -0.5
v 0.5 0 -0.5
v -0.4 0.9 0.4
v 0.5 0.9 0.4
v -0.2 0.9 0.3
v -0.1 0.9 0.3
v 0.1 0.9 0.3
v 0.2 0.9 0.3
v -0.3 0.9 0.2
v -0.2 0.9 0.2
v -0.1 0.9 0.2
v 0.1 0.9 0.2
v 0.2 0.9 0.2
v 0.3 0.9 0.2
v 0.4 0.9 0.2
v 0.5 0.9 0.2
v -0.3 0.9 0.1
v -0.2 0.9 0.1
v -0.1 0.9 0.1
v 0 0.9 0.1
v 0.3 0.9 0.1
v 0.4 0.9 0.1
v 0.5 0.9 0.1
v -0.1 0.9 0
v 0 0.9 0
v -0.2 0.9 -0.1
v -0.1 0.9 -0.1
v 0 0.9 -0.1
v 0.1 0.9 -0.1
v 0.2 0.9 -0.1
v 0.3 0.9 -0.1
v -0.2 0.9 -0.2
v -0.1 0.9 -0.2
v 0 0.9 -0.2
v 0.1 0.9 -0.2
v 0.2 0.9 -0.2
v 0.3 0.9 -0.2
v 0.4 0.9 -0.2
v -0.3 0.9 -0.3
v -0.2 0.9 -0.3
v 0.3 0.9 -0.3
v 0.4 0.9 -0.3
v -0.3 0.9 -0.4
v -0.2 0.9 -0.4
v 0.1 0.9 -0.4
v 0.2 0.9 -0.4
v -0.4 0.9 -0.5
v 0.1 0.9 -0.5
v 0.2 0.9 -0.5
v 0.5 0.9 -0.5

# faces
f 3/4/1 2/4/1 1/4/1
f 4/4/1 2/4/1 3/4/1
f 5/4/1 2/4/1 4/4/1
f 6/4/1 2/4/1 5/4/1
f 7/4/1 2/4/1 6/4/1
f 8/4/1 2/4/1 7/4/1
f 9/4/1 3/4/1 1/4/1
f 9/1/1 4/1/1 3/1/1
f 10/4/1 5/4/1 4/4/1
f 10/1/1 4/1/1 9/1/1
f 11/4/1 5/4/1 10/4/1
f 12/2/1 6/2/1 5/2/1
f 12/4/1 5/4/1 11/4/1
f 13/4/1 7/4/1 6/4/1
f 13/2/1 6/2/1 12/2/1
f 14/1/1 8/1/1 7/1/1
f 14/4/1 7/4/1 13/4/1
f 15/4/1 2/4/1 8/4/1
f 15/1/1 8/1/1 14/1/1
f 16/2/1 11/2/1 10/2/1
f 16/4/1 10/4/1 9/4/1
f 17/4/1 14/4/1 13/4/1
f 17/2/1 11/2/1 16/2/1
f 17/4/1 13/4/1 12/4/1
f 17/4/1 15/4/1 14/4/1
f 17/4/1 12/4/1 11/4/1
f 18/4/1 17/4/1 16/4/1
f 18/4/1 15/4/1 17/4/1
f 19/4/1 15/4/1 18/4/1
f 20/4/1 2/4/1 15/4/1
f 20/4/1 15/4/1 19/4/1
f 21/4/1 2/4/1 20/4/1
f 22/4/1 16/4/1 9/4/1
f 22/4/1 9/4/1 1/4/1
f 22/4/1 18/4/1 16/4/1
f 23/4/1 18/4/1 22/4/1
f 24/1/1 19/1/1 18/1/1
f 24/4/1 18/4/1 23/4/1
f 25/4/1 20/4/1 19/4/1
f 25/1/1 19/1/1 24/1/1
f 26/1/1 21/1/1 20/1/1
f 26/4/1 20/4/1 25/4/1
f 27/1/1 21/1/1 26/1/1
f 28/2/1 23/2/1 22/2/1
f 28/4/1 22/4/1 1/4/1
f 29/4/1 25/4/1 24/4/1
f 29/2/1 23/2/1 28/2/1
f 29/4/1 24/4/1 23/4/1
f 29/4/1 26/4/1 25/4/1
f 29/4/1 27/4/1 26/4/1
f 30/4/1 27/4/1 29/4/1
f 31/4/1 27/4/1 30/4/1
f 32/4/1 27/4/1 31/4/1
f 33/4/1 29/4/1 28/4/1
f 33/1/1 30/1/1 29/1/1
f 34/4/1 31/4/1 30/4/1
f 34/1/1 30/1/1 33/1/1
f 35/4/1 31/4/1 34/4/1
f 36/4/1 31/4/1 35/4/1
f 37/2/1 32/2/1 31/2/1
f 37/4/1 31/4/1 36/4/1
f 38/4/1 27/4/1 32/4/1
f 38/2/1 32/2/1 37/2/1
f 39/1/1 36/1/1 35/1/1
f 39/4/1 34/4/1 33/4/1
f 39/4/1 35/4/1 34/4/1
f 40/4/1 37/4/1 36/4/1
f 40/1/1 36/1/1 39/1/1
f 40/4/1 38/4/1 37/4/1
f 41/4/1 28/4/1 1/4/1
f 41/4/1 39/4/1 33/4/1
f 41/4/1 40/4/1 39/4/1
f 41/4/1 33/4/1 28/4/1
f 42/4/1 38/4/1 40/4/1
f 42/4/1 40/4/1 41/4/1
f 42/4/1 27/4/1 38/4/1
f 43/4/2 44/4/2 45/4/2
f 45/4/2 44/4/2 46/4/2
f 46/4/2 44/4/2 47/4/2
f 47/4/2 44/4/2 48/4/2
f 43/4/2 45/4/2 49/4/2
f 45/2/2 46/2/2 49/2/2
f 46/4/2 47/4/2 50/4/2
f 49/2/2 46/2/2 50/2/2
f 50/4/2 47/4/2 51/4/2
f 51/4/2 47/4/2 52/4/2
f 47/1/2 48/1/2 53/1/2
f 52/4/2 47/4/2 53/4/2
f 48/4/2 44/4/2 54/4/2
f 53/1/2 48/1/2 54/1/2
f 54/4/2 44/4/2 55/4/2
f 51/1/2 52/1/2 56/1/2
f 49/4/2 50/4/2 56/4/2
f 50/4/2 51/4/2 56/4/2
f 52/4/2 53/4/2 57/4/2
f 56/1/2 52/1/2 57/1/2
f 53/4/2 54/4/2 57/4/2
f 57/4/2 54/4/2 58/4/2
f 54/2/2 55/2/2 59/2/2
f 58/4/2 54/4/2 59/4/2
f 55/4/2 44/4/2 60/4/2
f 59/2/2 55/2/2 60/2/2
f 57/4/2 58/4/2 61/4/2
f 56/4/2 57/4/2 61/4/2
f 61/4/2 58/4/2 62/4/2
f 58/1/2 59/1/2 63/1/2
f 62/4/2 58/4/2 63/4/2
f 59/4/2 60/4/2 64/4/2
f 63/1/2 59/1/2 64/1/2
f 49/4/2 56/4/2 65/4/2
f 56/4/2 61/4/2 65/4/2
f 65/4/2 61/4/2 66/4/2
f 61/2/2 62/2/2 67/2/2
f 66/4/2 61/4/2 67/4/2
f 62/4/2 63/4/2 68/4/2
f 67/2/2 62/2/2 68/2/2
f 63/4/2 64/4/2 68/4/2
f 65/1/2 66/1/2 69/1/2
f 49/4/2 65/4/2 69/4/2
f 66/4/2 67/4/2 70/4/2
f 69/1/2 66/1/2 70/1/2
f 67/4/2 68/4/2 70/4/2
f 68/4/2 64/4/2 71/4/2
f 70/4/2 68/4/2 71/4/2
f 64/4/2 60/4/2 72/4/2
f 71/4/2 64/4/2 72/4/2
f 70/4/2 71/4/2 73/4/2
f 69/4/2 70/4/2 73/4/2
f 71/1/2 72/1/2 73/1/2
f 72/4/2 60/4/2 74/4/2
f 73/1/2 72/1/2 74/1/2
f 69/4/2 73/4/2 75/4/2
f 49/4/2 69/4/2 75/4/2
f 73/4/2 74/4/2 75/4/2
f 75/4/2 74/4/2 76/4/2
f 43/4/2 49/4/2 77/4/2
f 49/4/2 75/4/2 77/4/2
f 75/1/2 76/1/2 78/1/2
f 77/4/2 75/4/2 78/4/2
f 76/4/2 74/4/2 79/4/2
f 78/1/2 76/1/2 79/1/2
f 74/4/2 60/4/2 80/4/2
f 79/4/2 74/4/2 80/4/2
f 60/4/2 44/4/2 80/4/2
f 83/4/3 82/4/3 81/4/3
f 84/4/3 82/4/3 83/4/3
f 85/4/3 82/4/3 84/4/3
f 86/4/3 82/4/3 85/4/3
f 87/4/3 82/4/3 86/4/3
f 88/4/3 82/4/3 87/4/3
f 89/4/3 83/4/3 81/4/3
f 89/1/3 84/1/3 83/1/3
f 90/4/3 85/4/3 84/4/3
f 90/1/3 84/1/3 89/1/3
f 91/2/3 86/2/3 85/2/3
f 91/4/3 85/4/3 90/4/3
f 92/4/3 87/4/3 86/4/3
f 92/2/3 86/2/3 91/2/3
f 93/1/3 88/1/3 87/1/3
f 93/4/3 87/4/3 92/4/3
f 94/4/3 82/4/3 88/4/3
f 94/1/3 88/1/3 93/1/3
f 95/4/3 93/4/3 92/4/3
f 95/4/3 92/4/3 91/4/3
f 95/4/3 94/4/3 93/4/3
f 95/4/3 91/4/3 90/4/3
f 95/4/3 90/4/3 89/4/3
f 96/4/3 94/4/3 95/4/3
f 97/4/3 94/4/3 96/4/3
f 98/4/3 82/4/3 94/4/3
f 98/4/3 94/4/3 97/4/3
f 99/4/3 89/4/3 81/4/3
f 99/4/3 95/4/3 89/4/3
f 100/4/3 95/4/3 99/4/3
f 101/4/3 95/4/3 100/4/3
f 102/2/3 96/2/3 95/2/3
f 102/4/3 95/4/3 101/4/3
f 103/4/3 97/4/3 96/4/3
f 103/2/3 96/2/3 102/2/3
f 104/3/3 98/3/3 97/3/3
f 104/4/3 97/4/3 103/4/3
f 105/4/3 82/4/3 98/4/3
f 105/3/3 98/3/3 104/3/3
f 106/4/3 99/4/3 81/4/3
f 106/2/3 100/2/3 99/2/3
f 107/4/3 101/4/3 100/4/3
f 107/2/3 100/2/3 106/2/3
f 108/1/3 102/1/3 101/1/3
f 108/4/3 101/4/3 107/4/3
f 109/4/3 104/4/3 103/4/3
f 109/1/3 102/1/3 108/1/3
f 109/4/3 103/4/3 102/4/3
f 109/4/3 105/4/3 104/4/3
f 110/4/3 105/4/3 109/4/3
f 111/4/3 105/4/3 110/4/3
f 112/4/3 107/4/3 106/4/3
f 112/4/3 108/4/3 107/4/3
f 112/1/3 111/1/3 110/1/3
f 112/4/3 110/4/3 109/4/3
f 112/4/3 109/4/3 108/4/3
f 113/4/3 105/4/3 111/4/3
f 113/1/3 111/1/3 112/1/3
f 114/4/3 112/4/3 106/4/3
f 114/4/3 106/4/3 81/4/3
f 114/4/3 113/4/3 112/4/3
f 115/4/3 113/4/3 114/4/3
f 116/4/3 113/4/3 115/4/3
f 117/4/3 113/4/3 116/4/3
f 118/4/3 113/4/3 117/4/3
f 119/4/3 105/4/3 113/4/3
f 119/4/3 113/4/3 118/4/3
f 120/1/3 115/1/3 114/1/3
f 121/4/3 116/4/3 115/4/3
f 121/1/3 115/1/3 120/1/3
f 122/1/3 117/1/3 116/1/3
f 122/4/3 116/4/3 121/4/3
f 123/4/3 118/4/3 117/4/3
f 123/1/3 117/1/3 122/1/3
f 124/2/3 119/2/3 118/2/3
f 124/4/3 118/4/3 123/4/3
f 125/4/3 105/4/3 119/4/3
f 125/2/3 119/2/3 124/2/3
f 126/4/3 122/4/3 121/4/3
f 126/4/3 124/4/3 123/4/3
f 126/4/3 125/4/3 124/4/3
f 126/4/3 123/4/3 122/4/3
f 126/4/3 121/4/3 120/4/3
f 127/4/3 105/4/3 125/4/3
f 127/4/3 125/4/3 126/4/3
f 127/4/3 82/4/3 105/4/3
f 128/4/4 129/4/4 132/4/4
f 129/1/4 130/1/4 132/1/4
f 130/4/4 131/4/4 133/4/4
f 132/1/4 130/1/4 133/1/4
f 133/4/4 131/4/4 134/4/4
f 134/4/4 131/4/4 135/4/4
f 128/4/4 132/4/4 136/4/4
f 132/4/4 133/4/4 136/4/4
f 133/4/4 134/4/4 136/4/4
f 136/4/4 134/4/4 137/4/4
f 134/2/4 135/2/4 138/2/4
f 137/4/4 134/4/4 138/4/4
f 135/4/4 131/4/4 139/4/4
f 138/2/4 135/2/4 139/2/4
f 136/2/4 137/2/4 140/2/4
f 128/4/4 136/4/4 140/4/4
f 137/4/4 138/4/4 141/4/4
f 140/2/4 137/2/4 141/2/4
f 138/4/4 139/4/4 141/4/4
f 141/4/4 139/4/4 142/4/4
f 142/4/4 139/4/4 143/4/4
f 143/4/4 139/4/4 144/4/4
f 139/4/4 131/4/4 145/4/4
f 144/4/4 139/4/4 145/4/4
f 128/4/4 140/4/4 146/4/4
f 140/4/4 141/4/4 146/4/4
f 141/4/4 142/4/4 146/4/4
f 146/4/4 142/4/4 147/4/4
f 142/1/4 143/1/4 148/1/4
f 147/4/4 142/4/4 148/4/4
f 143/4/4 144/4/4 149/4/4
f 148/1/4 143/1/4 149/1/4
f 144/1/4 145/1/4 150/1/4
f 149/4/4 144/4/4 150/4/4
f 145/4/4 131/4/4 151/4/4
f 150/1/4 145/1/4 151/1/4
f 146/1/4 147/1/4 152/1/4
f 128/4/4 146/4/4 152/4/4
f 149/4/4 150/4/4 153/4/4
f 152/1/4 147/1/4 153/1/4
f 147/4/4 148/4/4 153/4/4
f 150/4/4 151/4/4 153/4/4
f 148/4/4 149/4/4 153/4/4
f 153/4/4 151/4/4 154/4/4
f 154/4/4 151/4/4 155/4/4
f 151/4/4 131/4/4 156/4/4
f 155/4/4 151/4/4 156/4/4
f 156/4/4 131/4/4 157/4/4
f 128/4/4 152/4/4 158/4/4
f 152/4/4 153/4/4 158/4/4
f 153/4/4 154/4/4 158/4/4
f 158/4/4 154/4/4 159/4/4
f 159/4/4 154/4/4 160/4/4
f 160/4/4 154/4/4 161/4/4
f 154/2/4 155/2/4 162/2/4
f 161/4/4 154/4/4 162/4/4
f 155/4/4 156/4/4 163/4/4
f 162/2/4 155/2/4 163/2/4
f 156/2/4 157/2/4 164/2/4
f 163/4/4 156/4/4 164/4/4
f 164/2/4 157/2/4 165/2/4
f 128/4/4 158/4/4 166/4/4
f 158/2/4 159/2/4 167/2/4
f 166/4/4 158/4/4 167/4/4
f 159/4/4 160/4/4 168/4/4
f 167/2/4 159/2/4 168/2/4
f 160/1/4 161/1/4 169/1/4
f 168/4/4 160/4/4 169/4/4
f 162/4/4 163/4/4 170/4/4
f 169/1/4 161/1/4 170/1/4
f 161/4/4 162/4/4 170/4/4
f 164/4/4 165/4/4 170/4/4
f 163/4/4 164/4/4 170/4/4
f 170/4/4 165/4/4 171/4/4
f 171/4/4 165/4/4 172/4/4
f 166/1/4 167/1/4 173/1/4
f 167/4/4 168/4/4 174/4/4
f 173/1/4 167/1/4 174/1/4
f 168/4/4 169/4/4 174/4/4
f 169/4/4 170/4/4 174/4/4
f 170/4/4 171/4/4 174/4/4
f 171/1/4 172/1/4 175/1/4
f 174/4/4 171/4/4 175/4/4
f 172/4/4 165/4/4 176/4/4
f 175/1/4 172/1/4 176/1/4
f 173/4/4 174/4/4 177/4/4
f 174/4/4 175/4/4 177/4/4
f 175/4/4 176/4/4 177/4/4
f 176/4/4 165/4/4 178/4/4
f 177/4/4 176/4/4 178/4/4
f 183/4/5 180/4/5 179/4/5
f 184/4/5 180/4/5 183/4/5
f 185/1/5 181/1/5 180/1/5
f 185/4/5 180/4/5 184/4/5
f 186/4/5 182/4/5 181/4/5
f 186/1/5 181/1/5 185/1/5
f 187/4/5 183/4/5 179/4/5
f 188/4/5 183/4/5 187/4/5
f 189/2/5 184/2/5 183/2/5
f 189/4/5 183/4/5 188/4/5
f 190/4/5 185/4/5 184/4/5
f 190/2/5 184/2/5 189/2/5
f 190/4/5 186/4/5 185/4/5
f 191/1/5 188/1/5 187/1/5
f 191/4/5 187/4/5 179/4/5
f 192/4/5 189/4/5 188/4/5
f 192/1/5 188/1/5 191/1/5
f 192/4/5 190/4/5 189/4/5
f 193/4/5 190/4/5 192/4/5
f 194/4/5 186/4/5 190/4/5
f 194/4/5 190/4/5 193/4/5
f 195/4/5 186/4/5 194/4/5
f 196/4/5 186/4/5 195/4/5
f 197/4/5 193/4/5 192/4/5
f 197/4/5 192/4/5 191/4/5
f 197/1/5 194/1/5 193/1/5
f 198/4/5 195/4/5 194/4/5
f 198/1/5 194/1/5 197/1/5
f 199/1/5 196/1/5 195/1/5
f 199/4/5 195/4/5 198/4/5
f 200/4/5 186/4/5 196/4/5
f 200/1/5 196/1/5 199/1/5
f 201/4/5 199/4/5 198/4/5
f 201/4/5 198/4/5 197/4/5
f 201/4/5 200/4/5 199/4/5
f 201/4/5 197/4/5 191/4/5
f 202/4/5 200/4/5 201/4/5
f 203/4/5 200/4/5 202/4/5
f 204/4/5 186/4/5 200/4/5
f 204/4/5 200/4/5 203/4/5
f 205/4/5 201/4/5 191/4/5
f 206/4/5 201/4/5 205/4/5
f 207/2/5 202/2/5 201/2/5
f 207/4/5 201/4/5 206/4/5
f 208/4/5 203/4/5 202/4/5
f 208/2/5 202/2/5 207/2/5
f 209/2/5 204/2/5 203/2/5
f 209/4/5 203/4/5 208/4/5
f 210/4/5 186/4/5 204/4/5
f 210/2/5 204/2/5 209/2/5
f 211/1/5 206/1/5 205/1/5
f 211/4/5 205/4/5 191/4/5
f 212/4/5 207/4/5 206/4/5
f 212/1/5 206/1/5 211/1/5
f 212/4/5 209/4/5 208/4/5
f 212/4/5 210/4/5 209/4/5
f 212/4/5 208/4/5 207/4/5
f 213/4/5 186/4/5 210/4/5
f 213/4/5 210/4/5 212/4/5
f 213/4/5 212/4/5 211/4/5
f 214/4/5 182/4/5 186/4/5
f 214/4/5 186/4/5 213/4/5
f 215/4/5 191/4/5 179/4/5
f 215/4/5 211/4/5 191/4/5
f 215/4/5 213/4/5 211/4/5
f 216/1/5 214/1/5 213/1/5
f 216/4/5 213/4/5 215/4/5
f 217/4/5 182/4/5 214/4/5
f 217/1/5 214/1/5 216/1/5
f 218/4/5 182/4/5 217/4/5
f 219/4/6 220/4/6 221/4/6
f 221/4/6 220/4/6 222/4/6
f 222/4/6 220/4/6 223/4/6
f 223/4/6 220/4/6 224/4/6
f 219/4/6 221/4/6 225/4/6
f 221/2/6 222/2/6 226/2/6
f 225/4/6 221/4/6 226/4/6
f 222/4/6 223/4/6 227/4/6
f 226/2/6 222/2/6 227/2/6
f 223/1/6 224/1/6 228/1/6
f 227/4/6 223/4/6 228/4/6
f 224/4/6 220/4/6 229/4/6
f 228/1/6 224/1/6 229/1/6
f 229/4/6 220/4/6 230/4/6
f 230/4/6 220/4/6 231/4/6
f 231/4/6 220/4/6 232/4/6
f 219/4/6 225/4/6 233/4/6
f 225/3/6 226/3/6 233/3/6
f 227/4/6 228/4/6 234/4/6
f 233/3/6 226/3/6 234/3/6
f 226/4/6 227/4/6 234/4/6
f 228/4/6 229/4/6 234/4/6
f 229/4/6 230/4/6 234/4/6
f 234/4/6 230/4/6 235/4/6
f 235/4/6 230/4/6 236/4/6
f 230/2/6 231/2/6 237/2/6
f 236/4/6 230/4/6 237/4/6
f 231/1/6 232/1/6 238/1/6
f 237/2/6 231/2/6 238/2/6
f 238/1/6 232/1/6 239/1/6
f 235/3/6 236/3/6 240/3/6
f 233/4/6 234/4/6 240/4/6
f 234/4/6 235/4/6 240/4/6
f 236/4/6 237/4/6 241/4/6
f 240/3/6 236/3/6 241/3/6
f 238/4/6 239/4/6 241/4/6
f 237/4/6 238/4/6 241/4/6
f 233/4/6 240/4/6 242/4/6
f 240/4/6 241/4/6 242/4/6
f 242/4/6 241/4/6 243/4/6
f 241/4/6 239/4/6 244/4/6
f 243/4/6 241/4/6 244/4/6
f 244/4/6 239/4/6 245/4/6
f 245/4/6 239/4/6 246/4/6
f 246/4/6 239/4/6 247/4/6
f 242/1/6 243/1/6 248/1/6
f 233/4/6 242/4/6 248/4/6
f 243/4/6 244/4/6 249/4/6
f 248/1/6 243/1/6 249/1/6
f 244/1/6 245/1/6 250/1/6
f 249/4/6 244/4/6 250/4/6
f 245/4/6 246/4/6 251/4/6
f 250/1/6 245/1/6 251/1/6
f 246/2/6 247/2/6 252/2/6
f 251/4/6 246/4/6 252/4/6
f 247/4/6 239/4/6 253/4/6
f 252/2/6 247/2/6 253/2/6
f 253/4/6 239/4/6 254/4/6
f 219/4/6 233/4/6 255/4/6
f 251/4/6 252/4/6 255/4/6
f 250/4/6 251/4/6 255/4/6
f 252/4/6 253/4/6 255/4/6
f 249/4/6 250/4/6 255/4/6
f 248/4/6 249/4/6 255/4/6
f 233/4/6 248/4/6 255/4/6
f 255/4/6 253/4/6 256/4/6
f 253/1/6 254/1/6 257/1/6
f 256/4/6 253/4/6 257/4/6
f 254/4/6 239/4/6 258/4/6
f 257/1/6 254/1/6 258/1/6
f 255/2/6 256/2/6 259/2/6
f 219/4/6 255/4/6 259/4/6
f 256/4/6 257/4/6 260/4/6
f 259/2/6 256/2/6 260/2/6
f 257/4/6 258/4/6 260/4/6
f 260/4/6 258/4/6 261/4/6
f 261/4/6 258/4/6 262/4/6
f 219/4/6 259/4/6 263/4/6
f 259/4/6 260/4/6 263/4/6
f 260/4/6 261/4/6 263/4/6
f 261/2/6 262/2/6 264/2/6
f 263/4/6 261/4/6 264/4/6
f 262/4/6 258/4/6 265/4/6
f 264/2/6 262/2/6 265/2/6
f 258/4/6 239/4/6 266/4/6
f 265/4/6 258/4/6 266/4/6
